<svg width="52" height="52" viewBox="0 0 52 52" fill="none" xmlns="http://www.w3.org/2000/svg">
<g clip-path="url(#clip0_2129_83576)">
<path d="M0 26C0 11.6406 11.6406 0 26 0C40.3594 0 52 11.6406 52 26C52 40.3594 40.3594 52 26 52C11.6406 52 0 40.3594 0 26Z" stroke="#FF6900" stroke-linecap="round" stroke-dasharray="6 6"/>
<path d="M28.0049 16V34H17.0049C16.4526 34 16.0049 33.5522 16.0049 33V27.5C17.3856 27.5 18.5049 26.3807 18.5049 25C18.5049 23.6193 17.3856 22.5 16.0049 22.5V17C16.0049 16.4477 16.4526 16 17.0049 16H28.0049ZM30.0049 16H35.0049C35.5572 16 36.0049 16.4477 36.0049 17V22.5C34.6242 22.5 33.5049 23.6193 33.5049 25C33.5049 26.3807 34.6242 27.5 36.0049 27.5V33C36.0049 33.5522 35.5572 34 35.0049 34H30.0049V16Z" fill="#FF8904"/>
</g>
<defs>
<clipPath id="clip0_2129_83576">
<path d="M0 26C0 11.6406 11.6406 0 26 0C40.3594 0 52 11.6406 52 26C52 40.3594 40.3594 52 26 52C11.6406 52 0 40.3594 0 26Z" fill="white"/>
</clipPath>
</defs>
</svg>
