<svg width="221" height="296" viewBox="0 0 221 296" fill="none" xmlns="http://www.w3.org/2000/svg">
<path d="M187.488 179.326C189.68 177.388 191.888 175.342 191.437 172.506C191.207 170.99 190.388 169.626 189.157 168.707C187.927 167.788 186.384 167.388 184.86 167.592L176.276 129.199C176.914 129.974 176.992 130.253 177.411 130.253C177.516 130.253 177.618 130.227 177.711 130.179C177.803 130.13 177.882 130.06 177.94 129.974C180.398 126.553 182.601 122.958 184.533 119.217C188.048 113.637 182.123 110.568 178.858 116.117C178.596 115.181 178.139 114.311 177.518 113.563C176.896 112.816 176.123 112.207 175.25 111.777C174.324 111.45 173.314 111.45 172.389 111.777L150.354 13.305C149.392 9.07854 146.792 5.40283 143.122 3.07981C139.451 0.756794 135.008 -0.0249857 130.761 0.905031C71.4381 14.018 33.465 22.0625 29.6397 22.946C20.6052 25.054 14.0897 43.096 16.1112 51.8225L34.7246 134.763C34.613 134.671 34.4728 134.621 34.328 134.621C34.1833 134.621 34.043 134.671 33.9315 134.763C19.159 145.52 8.94266 162.663 4.09106 179.868C-3.34184 205.955 2.13176 235.668 11.6328 260.964C13.6165 266.609 16.4876 271.904 20.1387 276.65C20.5119 277.131 21.2894 276.542 20.9628 276.046C14.6184 266.436 11.7572 258.205 8.36731 246.363C2.30281 225.934 -0.185186 204.141 4.74416 183.34C13.0634 149.659 34.1337 136.933 34.9423 135.755L41.691 165.965C35.517 172.728 30.5001 180.457 26.8407 188.843C26.5453 189.509 27.1517 189.804 27.5094 189.075C33.3127 177.123 41.6221 166.551 51.8762 158.075C57.3965 153.596 63.3521 149.101 70.163 147.876C72.9657 147.352 75.8599 147.626 78.5134 148.667C89.1185 152.976 85.6664 164.43 79.8818 174.304C66.26 197.554 64.9227 199.972 63.0256 205.195C59.1847 216.851 63.0256 226.895 64.8916 238.551C69.2611 265.087 58.9981 273.969 56.8833 276.991C56.0436 278.216 57.0233 278.448 57.412 278.123C60.5607 275.433 63.0096 272.025 64.5495 268.187L67.7683 282.618C68.2391 284.736 69.1247 286.741 70.3744 288.518C71.624 290.294 73.2131 291.808 75.0505 292.971C76.888 294.135 78.9377 294.925 81.0823 295.298C83.2268 295.67 85.424 295.617 87.5479 295.142L186.368 273.194C194.594 271.303 204.406 257.446 202.307 246.921C202.245 244.658 203.333 250.145 187.488 179.326ZM47.4134 160.137L20.9784 42.0575C20.165 38.4517 20.7417 34.6729 22.594 31.4712C24.4462 28.2696 27.4386 25.8794 30.977 24.775C31.5679 24.5735 130.015 2.47053 131.057 2.23803C132.98 1.81123 134.968 1.7672 136.908 2.10847C138.848 2.44974 140.701 3.16959 142.361 4.22669C144.022 5.28379 145.456 6.65733 146.582 8.26844C147.708 9.87956 148.504 11.6965 148.924 13.615L171.051 112.552C170.44 113.044 169.973 113.692 169.699 114.427C167.864 118.566 171.44 122.999 174.208 126.626L183.429 167.871C182.422 168.19 181.495 168.719 180.708 169.421C180.599 165.717 179.075 162.369 175.592 162.152L172.793 149.597C174.643 145.257 175.405 143.877 176.012 140.452C176.188 139.51 176.135 138.539 175.856 137.622C175.578 136.705 175.083 135.868 174.412 135.181C173.742 134.495 172.916 133.979 172.003 133.676C171.091 133.374 170.119 133.295 169.17 133.446L144.29 21.8455C143.433 18.1351 141.139 14.9126 137.909 12.8803C134.679 10.8479 130.774 10.1705 127.045 10.9955L40.5247 30.107C36.8044 30.965 33.5741 33.2518 31.5359 36.4705C29.4977 39.6893 28.8162 43.5798 29.6397 47.2965L53.7267 155.022C51.4097 156.634 49.3882 158.323 47.4134 160.137ZM74.7347 146.326C67.3018 145.536 60.7397 149.829 54.7996 154.076L30.8371 47.002C30.0955 43.6379 30.7215 40.1178 32.578 37.2127C34.4345 34.3076 37.3703 32.2542 40.7424 31.502C134.431 10.6235 128.04 11.9565 130.139 11.941C133.115 11.9363 136.003 12.9471 138.323 14.8054C140.643 16.6637 142.255 19.2575 142.89 22.1555L167.77 133.756C163.634 134.856 161.27 139.367 160.726 143.056C157.974 139.258 152.858 137.631 149.841 141.32C149.156 142.483 148.828 143.822 148.9 145.17C148.972 146.518 149.44 147.814 150.246 148.899C151.411 150.544 152.7 152.099 154.102 153.549L145.907 155.905C145.332 147.814 141.009 133.275 132.441 121.449C130.955 119.169 129.006 117.225 126.718 115.745C129.508 113.18 131.847 110.167 133.638 106.832C133.71 106.707 133.739 106.562 133.72 106.419C133.7 106.276 133.633 106.143 133.53 106.042C133.427 105.941 133.293 105.877 133.149 105.86C133.006 105.843 132.86 105.874 132.736 105.949C132.394 106.166 132.021 106.367 131.663 106.553C132.137 105.835 132.504 105.052 132.752 104.228C132.776 104.12 132.771 104.007 132.737 103.901C132.704 103.795 132.643 103.7 132.561 103.625C132.48 103.55 132.38 103.497 132.271 103.472C132.163 103.448 132.05 103.452 131.943 103.484C130.388 104.12 129.098 102.477 128.693 100.834C127.527 95.9975 128.693 93.9515 125.879 88.0615C128.288 84.0721 129.775 79.598 130.233 74.964C130.512 73.9415 130.463 72.8574 130.093 71.864C129.832 71.4233 129.435 71.0791 128.961 70.8834C128.487 70.6876 127.962 70.651 127.465 70.779C123.73 71.436 120.114 72.6427 116.735 74.3595C117.233 70.438 117.839 66.7335 117.964 63.0135C120.607 61.851 127.962 58.5185 126.423 52.272C125.63 49.0015 121.151 44.894 117.606 45.9325C117.797 43.868 117.27 41.8008 116.111 40.0788C114.953 38.3568 113.235 37.085 111.246 36.4775C109.006 35.9823 106.664 36.2417 104.587 37.215C102.511 38.1882 100.817 39.8204 99.7702 41.856C98.1882 40.0426 96.2721 38.5483 94.1256 37.454C92.5063 36.769 90.7371 36.5116 88.989 36.7068C87.2408 36.902 85.5727 37.5431 84.1456 38.5683C82.7185 39.5935 81.5806 40.9681 80.8419 42.5595C80.1032 44.1508 79.7886 45.9051 79.9284 47.653C74.8436 46.506 69.1523 49.916 69.4322 55.403C69.4726 56.655 69.8249 57.8772 70.4575 58.9596C71.09 60.0419 71.9827 60.9504 73.0553 61.603C74.5043 62.2049 76.0097 62.6618 77.5493 62.967C78.4035 63.2589 79.1753 63.7503 79.8002 64.4001C80.4251 65.05 80.8849 65.8394 81.1413 66.7025C82.7166 71.0101 83.9641 75.4297 84.8733 79.924C84.8733 80.079 85.1377 79.614 83.7537 81.0865C82.6651 80.0371 81.4837 79.0878 80.2239 78.25C78.8399 77.1185 77.5804 76.111 76.2897 75.15C68.0016 68.733 67.7061 81.4585 71.3448 89.596C72.5126 92.3352 74.0851 94.8847 76.0098 97.16C75.9165 97.6095 75.8543 98.0745 75.7921 98.524C75.1079 98.2915 74.2371 99.5315 74.0661 100.229C74.0364 100.323 74.0296 100.423 74.0463 100.52C74.0629 100.617 74.1025 100.708 74.1618 100.787C74.221 100.866 74.2983 100.93 74.3871 100.973C74.4759 101.016 74.5737 101.037 74.6725 101.035H75.5433C75.331 103.203 75.2583 105.383 75.3256 107.561C75.4345 109.979 75.3256 115.667 72.962 115.869C72.8543 115.865 72.7483 115.895 72.6581 115.954C72.5679 116.013 72.4978 116.097 72.4572 116.197C72.4166 116.296 72.4074 116.406 72.431 116.51C72.4545 116.615 72.5096 116.71 72.5888 116.783C73.2025 117.305 73.8758 117.752 74.5948 118.116H73.1642C73.0675 118.114 72.9723 118.139 72.8893 118.188C72.8063 118.238 72.739 118.309 72.6951 118.395C72.6513 118.481 72.6326 118.577 72.6413 118.673C72.65 118.769 72.6857 118.861 72.7443 118.938C77.1139 124.161 83.6293 125.959 90.5646 126.688C90.0048 129.447 88.7764 133.833 86.8482 136.127C86.1529 136.826 85.3363 137.393 84.4379 137.801C80.255 138.809 78.2179 144.001 80.3327 148.248C78.6256 147.217 76.7169 146.561 74.7347 146.326ZM139.718 177.9C136.888 182.751 134.524 183.495 129.035 184.208L94.8253 189.06C91.0311 189.742 77.4093 191.757 78.4823 188.114C79.5708 185.402 85.7286 177.869 87.2991 175.947C86.4283 182.55 89.0874 185.247 95.4784 184.131C129.688 177.931 128.133 178.938 128.802 177.76C130.077 178.008 131.026 176.768 131.912 175.668C133.395 173.573 134.745 171.388 135.955 169.127C137.027 167.365 137.746 165.411 138.07 163.376C141.297 162.751 144.602 162.631 147.866 163.02C147.992 163.128 148.091 163.265 148.156 163.418C148.221 163.571 148.249 163.737 148.24 163.903C147.913 164.725 148.939 162.074 139.734 177.9H139.718ZM148.753 165.794C149.147 168.158 148.588 170.582 147.198 172.537L141.926 181.418C140.818 183.76 139.377 185.932 137.65 187.866C136.515 188.789 135.116 189.331 133.654 189.416C132.379 189.602 88.3565 195.089 88.3565 195.089C82.3853 196.128 79.6485 195.926 78.4356 190.331C82.3542 192.656 92.7572 190.16 128.833 185.464C134.353 184.751 137.619 184.115 140.667 178.659L148.753 165.794ZM100.143 160.09C100.477 160.32 100.785 160.585 101.061 160.881C100.205 161.65 99.4568 162.531 98.8372 163.5C98.829 163.541 98.829 163.583 98.8371 163.623C98.8452 163.664 98.8612 163.703 98.8843 163.737C98.9074 163.772 98.9371 163.802 98.9717 163.825C99.0063 163.848 99.0452 163.864 99.086 163.872C99.1269 163.88 99.1689 163.88 99.2098 163.872C99.2506 163.864 99.2895 163.848 99.3241 163.825C99.3588 163.802 99.3886 163.772 99.4117 163.738C99.4349 163.703 99.451 163.665 99.4592 163.624C100.101 162.876 100.809 162.186 101.574 161.563C101.903 162.1 102.194 162.659 102.445 163.237C102.32 163.407 102.243 163.469 102.243 163.578C102.238 163.628 102.244 163.68 102.26 163.728C102.276 163.777 102.301 163.822 102.334 163.861C102.367 163.9 102.408 163.932 102.454 163.955C102.499 163.978 102.549 163.992 102.6 163.996C102.942 163.996 103.456 162.865 105.71 160.896C105.866 161.098 105.959 161.284 106.223 161.284C106.281 161.286 106.338 161.276 106.391 161.255C106.444 161.234 106.492 161.202 106.531 161.161C106.571 161.12 106.601 161.071 106.621 161.017C106.64 160.963 106.648 160.906 106.643 160.85C106.614 160.649 106.551 160.455 106.457 160.276C106.971 159.829 107.541 159.449 108.152 159.145C108.487 159.553 108.778 159.994 109.022 160.462C108.062 161.426 107.179 162.462 106.379 163.562C106.332 163.62 106.307 163.693 106.309 163.768C106.312 163.843 106.341 163.914 106.392 163.969C106.444 164.024 106.513 164.058 106.588 164.066C106.662 164.074 106.737 164.055 106.799 164.012C107.017 164.012 107.234 163.376 109.473 161.299C109.557 161.602 109.73 161.872 109.971 162.074C108.152 164.012 106.612 165.949 107.359 168.662C107.477 169.121 107.687 169.553 107.975 169.931C108.264 170.309 108.625 170.626 109.038 170.863C109.171 171.558 109.569 172.174 110.15 172.582C110.73 172.99 111.446 173.157 112.148 173.048C113.079 172.924 113.971 172.595 114.76 172.087C116.689 173.358 118.461 171.467 119.643 170.32C121.182 168.786 122.577 167.116 123.811 165.329C124.588 164.213 124.324 164.492 124.495 164.539C124.93 164.663 125.07 163.903 126.656 162.167C126.852 162.559 127.097 162.923 127.387 163.252C127.439 163.336 127.522 163.397 127.618 163.42C127.714 163.443 127.816 163.427 127.9 163.376C127.985 163.325 128.045 163.242 128.069 163.146C128.092 163.05 128.076 162.949 128.025 162.865C127.821 162.394 127.565 161.947 127.263 161.532C127.768 160.959 128.331 160.44 128.942 159.982C129.247 160.431 129.517 160.902 129.751 161.392C128.709 162.446 127.8 163.622 127.045 164.895C126.889 165.376 127.651 165.484 127.651 165.066C128.388 164.019 129.227 163.049 130.155 162.167C130.481 162.803 130.715 163.438 131.15 163.252C131.255 163.194 131.337 163.104 131.385 162.994C131.433 162.885 131.443 162.763 131.414 162.648C131.316 162.214 131.17 161.793 130.979 161.392C132.071 160.48 133.23 159.651 134.447 158.912C130.697 163.351 128.449 168.857 128.025 174.645C128.056 175.323 128.025 176.003 127.931 176.675V176.799C127.543 177.683 126.081 177.698 125.879 177.729C125.241 177.729 127.636 177.419 96.3337 182.798C92.7727 183.402 89.3984 183.495 88.7608 180.008C87.7967 173.281 91.5909 164.415 100.143 160.09ZM101.108 159.672C101.988 159.221 102.924 158.888 103.891 158.68C100.905 160.4 102.32 160.648 101.17 159.672H101.108ZM104.622 159.424C105.539 160.54 105.259 159.424 103.067 162.322C102.892 161.82 102.628 161.353 102.289 160.943C103.002 160.343 103.785 159.833 104.622 159.424ZM105.493 158.974C106.11 158.76 106.7 158.474 107.25 158.122C107.576 158.463 107.592 158.122 106.146 159.253C105.726 159.563 106.037 159.548 105.493 158.974ZM111.713 159.331C111.853 159.625 111.713 159.563 111.93 159.796C111.666 160.137 110.904 161.082 110.609 161.346C110.519 161.06 110.399 160.785 110.251 160.524C110.5 160.4 110.717 160.168 111.775 159.331H111.713ZM109.753 159.718C109.642 159.5 109.512 159.293 109.365 159.098C109.238 158.941 109.103 158.791 108.96 158.649C109.496 158.367 110.046 158.113 110.609 157.889C110.821 158.075 111.019 158.277 111.199 158.494C110.718 158.878 110.256 159.287 109.816 159.718H109.753ZM126.672 160.726C127.09 159.991 127.458 159.23 127.776 158.447L128.367 159.284C127.732 159.708 127.17 160.232 126.703 160.834L126.672 160.726ZM129.673 159.424C130.357 158.99 130.497 158.928 130.979 158.587C131.663 158.587 132.363 158.587 133.063 158.695C129.626 160.741 131.259 161.408 129.735 159.424H129.673ZM135.426 164.833C135.335 164.699 135.195 164.605 135.036 164.571C134.877 164.536 134.711 164.563 134.571 164.647C134.291 164.864 134.291 164.926 133.483 166.042C133.312 165.856 133.141 165.701 132.985 165.515C132.923 165.434 132.832 165.379 132.731 165.362C132.63 165.344 132.526 165.366 132.441 165.422C131.974 165.732 132.534 166.414 132.876 166.972C132.596 167.406 132.316 167.856 132.083 168.29C132.031 168.36 132 168.445 131.995 168.533C131.991 168.621 132.012 168.708 132.057 168.784C132.102 168.86 132.168 168.921 132.247 168.96C132.326 168.999 132.415 169.014 132.503 169.003C132.503 169.003 132.736 169.003 132.783 168.894C134.011 167.654 133.218 167.716 134.338 168.491C134.472 168.574 134.632 168.607 134.789 168.584C134.042 169.948 130.544 176.241 129.113 176.861C129.151 170.343 131.579 164.064 135.94 159.207C135.942 159.26 135.957 159.312 135.984 159.358C136.011 159.404 136.049 159.442 136.095 159.47C136.251 159.78 136.406 160.09 136.546 160.416C137.083 162.923 136.609 165.54 135.224 167.701C135.224 167.499 135.115 167.484 134.353 166.91C135.38 165.701 135.815 165.329 135.489 164.833H135.426ZM136.219 157.61C136.137 157.554 136.039 157.524 135.94 157.524C135.84 157.524 135.742 157.554 135.66 157.61C133.258 157.244 130.824 157.125 128.398 157.254C132.793 147.58 133.646 136.676 130.808 126.44C130.787 126.358 130.749 126.282 130.698 126.215C130.647 126.148 130.583 126.091 130.51 126.049C130.437 126.006 130.357 125.979 130.273 125.967C130.19 125.956 130.104 125.961 130.023 125.982C129.941 126.004 129.864 126.041 129.797 126.092C129.73 126.143 129.673 126.206 129.631 126.279C129.588 126.352 129.56 126.432 129.549 126.515C129.537 126.599 129.543 126.684 129.564 126.765C131.16 132.927 131.471 139.351 130.476 145.638C129.481 151.925 127.202 157.941 123.779 163.314C122.377 165.374 120.855 167.351 119.223 169.235C118.384 170.212 117.559 171.591 115.46 171.064C115.301 170.977 115.17 170.846 115.085 170.686C114.999 170.527 114.962 170.345 114.978 170.165C115.118 168.708 115.802 168.615 116.082 166.817C116.082 166.714 116.041 166.616 115.968 166.543C115.895 166.47 115.797 166.43 115.693 166.43C115.59 166.43 115.491 166.47 115.419 166.543C115.346 166.616 115.305 166.714 115.305 166.817C114.987 167.482 114.623 168.124 114.216 168.739C113.998 169.116 113.861 169.534 113.816 169.966C113.77 170.399 113.817 170.836 113.952 171.25L113.237 171.607C111.557 172.397 110.438 171.808 110.127 170.801C109.38 168.398 112.35 166.368 112.257 165.825C112.249 165.757 112.223 165.692 112.182 165.638C112.141 165.583 112.086 165.54 112.023 165.513C111.96 165.486 111.89 165.477 111.822 165.485C111.754 165.494 111.689 165.52 111.635 165.562C110.329 166.445 109.403 167.783 109.038 169.313C107.483 167.391 109.038 164.771 110.593 163.268C119.628 154.588 120.716 140.994 116.813 129.168C116.735 128.765 116.051 128.858 116.129 129.168C118.228 138.809 118.726 148.171 113.843 156.804C110.146 156.619 106.44 156.91 102.818 157.672C98.3396 158.943 100.221 159.656 100.19 156.99C100.912 150.755 100.183 144.438 98.0597 138.53C97.7954 137.801 97.1267 138.158 97.2822 138.716C97.6036 139.749 97.8835 140.834 98.1219 141.971C97.7925 143.367 97.3824 144.744 96.8935 146.094C96.2949 147.825 95.1245 149.303 93.5738 150.286C92.023 151.269 90.1837 151.698 88.3565 151.503C88.6527 151.424 88.9288 151.284 89.1672 151.091C89.4056 150.899 89.6009 150.659 89.7405 150.387C89.8604 150.452 89.9932 150.489 90.1292 150.496C91.0311 150.496 92.4617 148.946 93.006 148.31C93.435 147.639 93.6525 146.855 93.6303 146.059C93.6081 145.263 93.3474 144.493 92.8816 143.846C92.2403 142.401 91.4536 141.025 90.5335 139.739C90.5693 139.644 90.5693 139.539 90.5335 139.444C89.6639 138.444 88.48 137.766 87.1747 137.522C89.896 135.151 91.3421 130.067 91.8397 126.579C103.58 127.416 117.248 124.115 126.05 116.411C126.877 117.074 127.661 117.788 128.398 118.55C133.498 123.681 141.071 136.856 143.948 151.565C144.072 152.185 144.71 155.626 144.974 156.215C141.864 157.099 139.5 157.765 137.199 158.618C136.972 158.218 136.659 157.874 136.282 157.61H136.219ZM77.3627 118.085C77.2072 117.419 76.2586 117.868 74.0972 116.411C77.456 114.35 75.9943 106.228 76.4297 100.818C77.9847 100.818 79.5397 100.648 81.0947 100.446C81.1115 101.698 81.4211 102.928 81.9987 104.039C82.5764 105.151 83.4063 106.112 84.4224 106.848C83.7071 106.848 82.9918 106.708 82.292 106.693C81.5923 106.677 79.3842 106.693 79.182 107.173C79.1593 107.222 79.147 107.274 79.1458 107.328C79.1446 107.381 79.1545 107.435 79.175 107.484C79.1954 107.534 79.226 107.578 79.2647 107.616C79.3033 107.653 79.3493 107.681 79.3997 107.7C81.2469 107.668 83.0946 107.73 84.9355 107.886C86.8238 108.136 88.69 108.53 90.518 109.064C90.6087 109.064 90.6957 109.028 90.7599 108.964C90.824 108.9 90.8601 108.813 90.8601 108.723C90.8601 108.633 90.824 108.546 90.7599 108.482C90.6957 108.418 90.6087 108.382 90.518 108.382L90.207 108.274C92.1595 108.034 93.9592 107.099 95.2739 105.64C96.5887 104.182 97.3296 102.298 97.36 100.338C97.5948 100.322 97.83 100.364 98.0442 100.462C98.341 102.274 99.2478 103.933 100.616 105.164C101.983 106.395 103.731 107.125 105.57 107.235C105.527 107.27 105.496 107.316 105.479 107.368C105.463 107.421 105.462 107.477 105.477 107.53C105.633 107.824 106.006 107.53 106.69 107.22C108.609 107.082 110.417 106.269 111.79 104.926C115.242 103.376 117.077 102.694 119.332 101.609C119.814 101.5 119.441 100.725 119.099 100.911C108.369 104.693 115.211 104.492 114.061 97.811C120.063 97.811 121.96 96.044 126.003 91.797C127.247 96.695 126.547 102.647 129.704 104.476C130.136 104.747 130.641 104.877 131.15 104.848C130.662 105.906 129.926 106.831 129.004 107.545C128.885 107.633 128.799 107.758 128.761 107.901C128.723 108.044 128.735 108.196 128.795 108.331C128.854 108.466 128.958 108.577 129.09 108.645C129.221 108.714 129.372 108.736 129.517 108.708C130.173 108.525 130.817 108.302 131.446 108.041C129.183 111.671 126.237 114.829 122.769 117.341C105.244 129.4 80.9547 126.409 74.3304 119C75.2185 118.992 76.1039 118.898 76.9739 118.721C77.1099 118.687 77.2272 118.602 77.3001 118.483C77.373 118.364 77.3955 118.221 77.3627 118.085ZM94.1411 39.035C96.1557 40.2944 97.93 41.9003 99.3815 43.778C99.4739 43.8727 99.5896 43.9416 99.7169 43.9781C99.8443 44.0145 99.9791 44.0173 100.108 43.9859C100.237 43.9546 100.355 43.8904 100.451 43.7996C100.547 43.7088 100.618 43.5945 100.657 43.468C101.429 41.5092 102.868 39.8833 104.721 38.8747C106.574 37.866 108.724 37.5387 110.795 37.95C112.679 38.5039 114.266 39.7782 115.21 41.4946C116.154 43.2109 116.378 45.2299 115.833 47.1105C115.789 47.2725 115.799 47.4445 115.861 47.6004C115.924 47.7564 116.035 47.888 116.179 47.9754C116.323 48.0628 116.491 48.1013 116.659 48.0851C116.826 48.0689 116.984 47.9989 117.108 47.8855C118.897 46.3355 121.478 48.18 122.224 48.769C123.042 49.3297 123.726 50.0637 124.226 50.9185C124.726 51.7734 125.03 52.7278 125.117 53.7135C125.117 58.224 120.141 60.3785 116.829 61.82C116.711 61.8859 116.613 61.983 116.547 62.1007C116.481 62.2183 116.45 62.3519 116.455 62.4865C116.347 66.625 115.678 70.9185 115.18 75.1035C113.625 75.894 113.019 76.235 113.019 76.235C112.873 76.1938 112.732 76.1366 112.599 76.0645C112.786 74.7625 113.859 67.6325 113.812 66.315C113.781 66.222 113.722 66.141 113.642 66.0836C113.563 66.0261 113.467 65.9952 113.369 65.9952C113.27 65.9952 113.175 66.0261 113.095 66.0836C113.016 66.141 112.956 66.222 112.926 66.315C112.63 67.3845 111.884 75.615 111.868 75.708C109.865 74.7946 107.728 74.2034 105.539 73.9565C105.664 72.7165 105.928 53.8065 105.928 53.14C105.928 52.892 105.679 52.9075 105.524 52.9075C105.464 52.9074 105.407 52.9298 105.364 52.9701C105.321 53.0104 105.294 53.0656 105.29 53.1245C104.529 61.231 104.357 71.337 104.466 73.848H104C100.192 73.3541 96.32 73.8012 92.7261 75.15C92.5395 73.321 91.1711 66.253 90.1914 61.913C90.1914 61.5565 89.5539 61.4325 89.5539 61.913C89.5471 61.9489 89.5471 61.9857 89.5539 62.0215C90.7357 68.5315 91.3888 73.9875 91.6998 75.553C89.4454 76.5504 87.3499 77.8716 85.4798 79.4745C84.8583 75.9261 84.0486 72.413 83.054 68.95C80.6593 60.7195 77.9069 62.099 74.4393 60.8745C73.5439 60.497 72.7498 59.9155 72.1207 59.1767C71.4915 58.4379 71.0449 57.5624 70.8166 56.6205C70.5883 55.6785 70.5846 54.6963 70.806 53.7527C71.0274 52.8091 71.4675 51.9304 72.0912 51.187C73.112 50.0244 74.4784 49.2171 75.9916 48.8825C77.5048 48.5479 79.0856 48.7037 80.5038 49.327C81.0169 49.5285 81.4523 49.017 81.3901 48.49C81.0706 46.8639 81.2188 45.1808 81.8176 43.635C82.4164 42.0891 83.4415 40.7436 84.7745 39.7535C86.1076 38.7634 87.6943 38.1691 89.3516 38.0393C91.0089 37.9094 92.6692 38.2492 94.1411 39.0195V39.035ZM112.055 76.7L111.65 76.9015C111.558 76.9801 111.498 77.0896 111.481 77.2094C111.464 77.3292 111.492 77.451 111.558 77.552C111.625 77.6529 111.727 77.726 111.844 77.7575C111.961 77.789 112.086 77.7768 112.195 77.723C116.192 75.4997 120.421 73.717 124.806 72.4065C125.972 72.0965 128.6 71.1045 129.206 72.267C129.215 72.4064 129.215 72.5462 129.206 72.6855C127.518 72.737 125.887 73.3112 124.541 74.3285L116.347 78.9785C115.709 79.3505 116.751 80.017 116.829 79.4435C116.829 79.2885 116.455 79.5675 126.563 74.2045C126.796 74.0805 128.958 73.0265 129.269 73.941C128.133 83.3495 125.35 85.938 123.904 88.8365C123.841 88.9515 123.823 89.0856 123.854 89.2128C123.885 89.3399 123.963 89.4511 124.071 89.5246C124.18 89.5981 124.312 89.6286 124.442 89.6103C124.572 89.592 124.691 89.5261 124.775 89.4255C124.868 89.317 124.93 89.193 125.023 89.0845C125.212 89.4779 125.378 89.8816 125.521 90.2935C118.524 97.5475 119.721 95.1605 113.874 97.1135C113.372 95.1898 112.178 93.5174 110.518 92.4155C108.858 91.3136 106.85 90.8591 104.876 91.1389C102.901 91.4187 101.1 92.413 99.8137 93.9324C98.5279 95.4517 97.8482 97.3896 97.9042 99.3765C97.694 99.2784 97.4672 99.2206 97.2356 99.206C96.9779 97.2646 96.0213 95.4827 94.5438 94.192C93.0663 92.9012 91.1686 92.1896 89.204 92.1896C87.2394 92.1896 85.3417 92.9012 83.8642 94.192C82.3867 95.4827 81.4301 97.2646 81.1724 99.206C79.6174 99.423 78.0624 99.485 76.5074 99.5625C77.1116 94.6078 78.7997 89.8458 81.4523 85.6125C92.1196 68.6245 111.868 76.7 112.055 76.7ZM110.826 104.43C107.716 105.98 107.716 106.243 106.161 106.243C104.497 106.263 102.879 105.7 101.589 104.652C100.299 103.604 99.4185 102.139 99.1013 100.511C98.784 98.8824 99.05 97.1948 99.853 95.742C100.656 94.2892 101.945 93.1633 103.495 92.5607C105.045 91.958 106.759 91.9167 108.337 92.444C109.914 92.9714 111.256 94.0338 112.129 95.4463C113.001 96.8587 113.349 98.5315 113.111 100.173C112.873 101.815 112.064 103.321 110.826 104.43ZM96.3181 101.051C96.1193 102.843 95.2393 104.491 93.8589 105.657C92.4786 106.822 90.7027 107.417 88.8964 107.317C87.09 107.218 85.3904 106.433 84.1469 105.123C82.9034 103.814 82.2105 102.079 82.2105 100.276C82.2105 98.4723 82.9034 96.7375 84.1469 95.4278C85.3904 94.1181 87.09 93.3329 88.8964 93.2337C90.7027 93.1345 92.4786 93.7287 93.8589 94.8943C95.2393 96.0599 96.1193 97.7082 96.3181 99.5005C95.2918 100.276 95.4007 101.64 96.287 101.113L96.3181 101.051ZM80.9547 85.132C79.5863 82.807 76.7407 79.3815 75.4967 77.692C74.2527 76.0025 73.584 74.9795 71.9357 75.15C71.5625 75.15 71.5159 75.4755 71.6558 75.6305C72.0912 76.142 72.5266 74.809 74.3615 77.4595C75.8106 79.2444 77.1603 81.1072 78.4045 83.0395C80.7215 86.3875 80.8303 85.2715 80.1306 86.3875C79.4051 85.2646 78.4362 84.3182 77.2951 83.618C76.1541 82.9179 74.8699 82.4818 73.5374 82.342C73.4353 82.3398 73.3357 82.3733 73.256 82.4368C73.1762 82.5002 73.1214 82.5896 73.101 82.6893C73.0806 82.789 73.096 82.8926 73.1445 82.9821C73.193 83.0716 73.2715 83.1413 73.3663 83.179C75.9151 83.6067 78.1934 85.0149 79.7107 87.1005L79.3686 87.6895C78.7015 87.0303 77.8603 86.5734 76.9428 86.372C75.9154 86.1675 74.877 86.0226 73.8328 85.938C73.7364 85.9297 73.6402 85.9562 73.5617 86.0126C73.4831 86.0691 73.4275 86.1517 73.4049 86.2455C73.3823 86.3393 73.3943 86.4381 73.4386 86.5239C73.4828 86.6097 73.5565 86.6768 73.6462 86.713C75.45 87.395 77.3471 86.8525 79.0576 88.449C78.8088 88.8985 78.5756 89.3635 78.3734 89.8285C77.6197 89.9089 76.8927 90.1522 76.2431 90.5415C75.0457 91.115 75.5589 91.9055 76.1031 91.6265C76.6441 91.2951 77.2308 91.0444 77.8447 90.8825C77.1778 92.5231 76.6574 94.2192 76.2897 95.951C70.8161 89.193 69.3078 80.544 70.8161 75.7235C70.921 75.248 71.2059 74.8312 71.6114 74.5598C72.0169 74.2884 72.5118 74.1833 72.9931 74.2665C73.9099 74.5682 74.7524 75.0594 75.4656 75.708C81.1569 80.2185 80.5038 80.141 83.1006 81.7995C82.2548 82.8213 81.5344 83.94 80.9547 85.132ZM81.7944 148.915C81.8264 148.803 81.8264 148.685 81.7944 148.574C78.6844 140.994 84.469 136.313 89.2429 139.692C89.134 140.126 89.9115 141.335 90.1759 141.692C92.8971 146.45 92.7572 146.884 90.4402 148.884C90.1448 149.132 90.0515 149.178 89.9893 149.132C89.8108 148.942 89.6685 148.721 89.5694 148.481C88.2477 146.094 88.0144 145.381 87.5635 145.567C87.5059 145.586 87.4541 145.619 87.4132 145.664C87.3722 145.709 87.3434 145.763 87.3294 145.822C87.3154 145.881 87.3167 145.943 87.3332 146.001C87.3496 146.059 87.3807 146.113 87.4235 146.156C87.579 146.295 87.1747 145.861 88.3876 148.744C89.0563 150.294 89.1807 149.535 88.3876 150.062C87.1592 150.728 86.2106 150.79 85.2776 147.117C85.2415 147.018 85.1731 146.935 85.0834 146.88C84.9937 146.825 84.888 146.802 84.7835 146.814C84.679 146.827 84.5819 146.874 84.5078 146.949C84.4338 147.023 84.3872 147.121 84.3757 147.225C84.2555 148.32 84.5372 149.421 85.1688 150.325C84.8128 150.598 84.3973 150.784 83.9559 150.868C83.3719 150.081 82.6372 149.417 81.7944 148.915ZM84.7489 152.015C85.0884 151.919 85.4091 151.767 85.6975 151.565C91.6687 154.34 97.0179 150.604 98.6817 145.055C99.2908 148.91 99.4266 152.824 99.086 156.711C98.9255 157.525 98.9255 158.362 99.086 159.176C94.9689 161.313 91.6292 164.685 89.5383 168.817C87.4317 169.351 85.3554 169.998 83.3183 170.754C86.2728 164.787 88.2943 157.61 84.7489 151.999V152.015ZM82.5097 172.366C89.9271 169.84 87.1747 170.661 89.0407 170.026C88.4274 171.416 87.9585 172.865 87.6412 174.35C83.9705 178.255 80.6896 182.506 77.8447 187.045C77.5626 187.432 77.4103 187.899 77.4093 188.378C77.402 188.395 77.3983 188.413 77.3983 188.432C77.3983 188.45 77.402 188.469 77.4093 188.486C77.3674 190.83 78.0754 193.127 79.4308 195.043C80.0821 195.626 80.8495 196.065 81.6829 196.332C82.5162 196.599 83.3967 196.688 84.2669 196.593C85.9618 196.593 81.1569 197.027 133.358 190.78C138.023 190.563 139.843 188.037 142.097 183.929C143.512 181.341 148.644 172.816 148.753 172.661C149.59 171.312 150.102 169.79 150.251 168.211C150.399 166.633 150.179 165.042 149.608 163.562C149.621 163.315 149.583 163.067 149.498 162.835C149.412 162.602 149.281 162.389 149.111 162.208C148.941 162.028 148.736 161.883 148.509 161.782C148.282 161.682 148.037 161.628 147.789 161.625C144.593 161.243 141.357 161.352 138.194 161.95C138.191 160.976 137.995 160.012 137.619 159.114C141.6 158.137 142.906 157.672 155.019 154.324C158.242 157.545 161.654 160.573 165.236 163.392C165.297 163.472 165.375 163.537 165.466 163.582C165.556 163.627 165.656 163.65 165.757 163.65C165.858 163.65 165.957 163.627 166.048 163.582C166.138 163.537 166.217 163.472 166.278 163.392C168.315 159.362 170.196 155.425 171.876 151.643L174.224 162.136C173.431 162.299 172.688 162.649 172.058 163.155C171.428 163.662 170.928 164.312 170.6 165.05C169.185 167.778 169.559 171.25 169.885 174.273C169.885 174.846 170.88 184.983 171.285 188.734C171.293 188.92 171.374 189.096 171.51 189.224C171.647 189.351 171.828 189.42 172.016 189.416C174.577 188.239 177.046 186.871 179.402 185.324L188.048 223.997C188.789 227.361 188.163 230.881 186.307 233.786C184.45 236.691 181.514 238.744 178.142 239.497L91.622 258.717C88.2458 259.443 84.7186 258.811 81.8069 256.959C78.8952 255.108 76.8342 252.185 76.072 248.828L65.7468 202.638C68.3281 196.159 78.9021 179.078 82.5097 172.366ZM200.783 247.789C200.752 251.121 199.586 254.343 197.475 256.926C195.364 259.509 192.434 261.299 189.167 262.003L90.2847 283.966C86.4386 284.799 82.418 284.087 79.096 281.983C75.774 279.879 73.4189 276.553 72.5422 272.729C68.4992 254.764 67.5817 250.13 67.5817 250.13C67.6614 247.839 67.5366 245.547 67.2085 243.279C65.7624 229.003 60.2888 218.479 64.7672 205.133L74.7347 249.246C75.554 252.955 77.8133 256.19 81.0186 258.244C84.2239 260.297 88.1144 261.002 91.8397 260.205L178.422 241C182.145 240.146 185.377 237.86 187.416 234.64C189.455 231.42 190.135 227.528 189.307 223.811L180.552 184.658C182.496 183.34 184.362 181.914 186.166 180.411C202.338 252.424 200.814 244.658 200.767 247.789H200.783Z" fill="black"/>
<path d="M136.935 253.4C135.632 254.633 134.687 256.194 134.2 257.919C133.713 259.643 133.702 261.466 134.167 263.196C134.598 265.087 135.658 266.777 137.174 267.993C138.689 269.208 140.573 269.877 142.518 269.892C144.433 269.905 146.285 269.213 147.72 267.949C149.154 266.684 150.071 264.937 150.293 263.041C150.518 261.299 150.317 259.529 149.704 257.882C149.092 256.235 148.088 254.761 146.778 253.586C145.437 252.376 143.701 251.69 141.892 251.656C140.083 251.622 138.322 252.241 136.935 253.4ZM144.71 268.389C136.935 270.915 132.597 261.553 136.935 255.338C137.925 254.176 139.309 253.419 140.824 253.21C142.338 253.001 143.877 253.356 145.146 254.206C149.733 257.461 150.79 266.374 144.71 268.42V268.389ZM119.099 81.164C120.748 79.9886 122.613 79.151 124.589 78.6995C125.662 78.5135 126.035 78.436 126.144 78.126C126.149 78.0264 126.116 77.9285 126.053 77.8512C125.99 77.7739 125.9 77.7227 125.802 77.7075C123.239 77.8199 120.801 78.8425 118.928 80.5905C118.885 80.634 118.855 80.6882 118.84 80.7475C118.825 80.8069 118.826 80.8692 118.843 80.9278C118.861 80.9865 118.894 81.0393 118.939 81.0809C118.984 81.1225 119.039 81.1512 119.099 81.164ZM125.817 81.35C124.702 81.0398 123.531 80.9817 122.39 81.1802C121.25 81.3786 120.168 81.8285 119.224 82.497C119.165 82.5437 119.123 82.6086 119.104 82.6817C119.086 82.7547 119.092 82.8317 119.122 82.9008C119.153 82.9698 119.205 83.0269 119.271 83.0632C119.337 83.0995 119.414 83.113 119.488 83.1015C120.866 82.3366 122.42 81.9413 123.998 81.9545C125.133 81.9545 125.879 82.311 126.035 81.815C126.065 81.7245 126.06 81.6257 126.019 81.5391C125.979 81.4525 125.906 81.3848 125.817 81.35ZM119.924 83.83C119.869 83.8188 119.813 83.8198 119.759 83.8329C119.706 83.846 119.655 83.8709 119.612 83.9058C119.569 83.9406 119.535 83.9846 119.511 84.0345C119.487 84.0844 119.475 84.139 119.475 84.1943C119.475 84.2495 119.487 84.3041 119.511 84.354C119.535 84.4039 119.569 84.4479 119.612 84.4828C119.655 84.5177 119.706 84.5426 119.759 84.5557C119.813 84.5688 119.869 84.5697 119.924 84.5585C120.911 84.6523 121.853 85.0172 122.645 85.6125C122.695 85.659 122.758 85.6887 122.826 85.6973C122.894 85.7059 122.963 85.693 123.023 85.6605C123.083 85.6279 123.132 85.5773 123.162 85.5159C123.191 85.4544 123.201 85.3852 123.189 85.318C122.787 84.8472 122.286 84.47 121.722 84.2129C121.158 83.9559 120.544 83.8252 119.924 83.83ZM106.737 108.832C110.531 106.677 113.533 106.662 116.378 105.84C116.845 105.84 116.736 105.003 116.378 105.065C112.853 105.335 109.445 106.446 106.442 108.305C105.96 108.522 106.271 109.126 106.737 108.832ZM78.4829 111.405C82.2875 110.173 86.323 109.818 90.2853 110.366C90.7207 110.366 90.7985 109.715 90.2076 109.591C86.2119 108.666 82.0246 109.029 78.2496 110.63C77.8453 110.707 78.0941 111.405 78.4829 111.405Z" fill="black"/>
<path d="M82.7589 114.706C84.9646 113.498 87.3388 112.626 89.8031 112.117C90.3132 113.014 91.067 113.748 91.9776 114.236C92.8882 114.725 93.9186 114.946 94.9501 114.876C95.2149 115.713 95.7238 116.452 96.4118 117C96.992 117.518 97.7044 117.866 98.4705 118.007C99.2367 118.147 100.027 118.073 100.754 117.794C101.481 117.515 102.116 117.042 102.59 116.426C103.064 115.81 103.359 115.075 103.44 114.303C104.518 114.214 105.548 113.817 106.405 113.16C107.263 112.503 107.913 111.614 108.276 110.598C115.663 110.319 116.534 110.381 119.83 110.009C120.343 110.009 120.297 109.219 119.83 109.157C116.041 109.126 112.254 109.343 108.494 109.808C108.534 109.686 108.566 109.562 108.587 109.436C108.62 109.355 108.635 109.269 108.631 109.182C108.627 109.095 108.605 109.01 108.565 108.932C108.525 108.855 108.469 108.787 108.4 108.733C108.331 108.68 108.252 108.641 108.167 108.621C108.082 108.601 107.994 108.599 107.908 108.616C107.823 108.633 107.742 108.668 107.671 108.718C107.6 108.769 107.541 108.835 107.498 108.911C107.455 108.986 107.429 109.07 107.421 109.157C107.39 109.432 107.328 109.702 107.235 109.963C106.846 109.963 106.255 109.963 106.286 110.381C106.317 110.8 106.675 110.66 106.955 110.66C106.663 111.242 106.252 111.757 105.749 112.171C105.245 112.585 104.66 112.889 104.031 113.063C102.072 113.497 100.564 112.303 99.3663 109.451C101.217 106.94 100.362 105.995 99.3663 106.351C99.0398 106.46 99.3663 106.429 97.6869 106.429C96.0075 106.429 95.8209 107.901 97.1116 109.064L97.8424 109.668C97.5003 111.699 96.7384 113.853 94.608 113.9C93.872 113.884 93.1492 113.701 92.4946 113.365C91.8399 113.03 91.2704 112.55 90.8294 111.962L91.4358 111.854C91.8401 111.854 92.0734 111.11 91.1715 111.11C88.0027 111.099 84.9096 112.075 82.3235 113.9C82.2704 113.928 82.2235 113.967 82.1854 114.014C82.1473 114.06 82.1187 114.114 82.1014 114.171C82.0841 114.229 82.0783 114.289 82.0844 114.349C82.0905 114.409 82.1083 114.467 82.1369 114.52C82.1655 114.573 82.2043 114.62 82.251 114.658C82.2977 114.696 82.3515 114.724 82.4093 114.741C82.467 114.759 82.5276 114.764 82.5876 114.758C82.6476 114.752 82.7058 114.734 82.7589 114.706ZM98.7132 110.645C98.9942 111.463 99.46 112.206 100.075 112.816C100.689 113.426 101.437 113.887 102.259 114.163C102.259 114.396 102.259 114.628 102.165 114.845C101.978 115.326 101.676 115.753 101.287 116.092C100.897 116.431 100.431 116.671 99.9285 116.791C99.4259 116.911 98.9015 116.908 98.4001 116.783C97.8987 116.657 97.4353 116.413 97.0494 116.07C96.5752 115.677 96.193 115.185 95.9298 114.628C96.6859 114.243 97.3352 113.678 97.8206 112.983C98.306 112.289 98.6126 111.486 98.7132 110.645ZM83.1166 92.0759C83.6453 92.0759 83.7541 91.1924 85.3247 90.2159C86.0997 89.809 86.912 89.4769 87.7505 89.2239C88.4036 88.8209 88.1237 87.6739 86.5998 88.0149L85.8534 88.2939C84.4782 88.9234 83.3749 90.0232 82.7434 91.3939C82.7109 91.4624 82.6951 91.5375 82.6972 91.6132C82.6994 91.6889 82.7195 91.7631 82.7559 91.8296C82.7923 91.8961 82.8439 91.953 82.9066 91.9958C82.9693 92.0387 83.0412 92.0661 83.1166 92.0759ZM108.059 86.7749C108.451 86.7672 108.843 86.8088 109.225 86.8989C110.063 87.1242 110.872 87.4467 111.635 87.8599C113.19 87.8599 110.967 85.5194 108.183 85.4574C107.631 85.4028 107.078 85.5517 106.628 85.8759C105.835 86.6819 106.97 87.0384 108.059 86.7749ZM93.2863 178.488C93.4285 178.465 93.5579 178.393 93.6512 178.284C93.7446 178.174 93.7959 178.035 93.7959 177.892C93.7959 177.748 93.7446 177.609 93.6512 177.5C93.5579 177.39 93.4285 177.318 93.2863 177.295C93.144 177.318 93.0147 177.39 92.9213 177.5C92.8279 177.609 92.7766 177.748 92.7766 177.892C92.7766 178.035 92.8279 178.174 92.9213 178.284C93.0147 178.393 93.144 178.465 93.2863 178.488ZM97.6869 179.325C97.8291 179.302 97.9585 179.23 98.0519 179.121C98.1453 179.011 98.1966 178.872 98.1966 178.729C98.1966 178.585 98.1453 178.446 98.0519 178.337C97.9585 178.227 97.8291 178.155 97.6869 178.132C97.4692 178.132 97.0183 178.395 97.1116 178.845C97.1419 178.977 97.2145 179.095 97.3183 179.181C97.4222 179.268 97.5516 179.319 97.6869 179.325ZM102.352 176.799C102.482 176.777 102.601 176.71 102.686 176.609C102.772 176.508 102.819 176.381 102.819 176.249C102.819 176.117 102.772 175.989 102.686 175.888C102.601 175.788 102.482 175.72 102.352 175.698C102.221 175.72 102.103 175.788 102.017 175.888C101.932 175.989 101.885 176.117 101.885 176.249C101.885 176.381 101.932 176.508 102.017 176.609C102.103 176.71 102.221 176.777 102.352 176.799ZM104.56 179.79C104.7 179.79 104.835 179.735 104.934 179.636C105.033 179.537 105.089 179.403 105.089 179.263C105.089 179.124 105.033 178.99 104.934 178.891C104.835 178.792 104.7 178.736 104.56 178.736C104.42 178.736 104.285 178.792 104.186 178.891C104.087 178.99 104.031 179.124 104.031 179.263C104.031 179.403 104.087 179.537 104.186 179.636C104.285 179.735 104.42 179.79 104.56 179.79ZM110.298 175.419C110.298 175.284 110.244 175.154 110.148 175.058C110.051 174.962 109.921 174.908 109.785 174.908C109.649 174.908 109.518 174.962 109.422 175.058C109.326 175.154 109.272 175.284 109.272 175.419C109.272 175.555 109.326 175.685 109.422 175.781C109.518 175.877 109.649 175.931 109.785 175.931C109.921 175.931 110.051 175.877 110.148 175.781C110.244 175.685 110.298 175.555 110.298 175.419ZM114.45 179C114.549 178.974 114.637 178.915 114.7 178.834C114.763 178.753 114.797 178.653 114.797 178.55C114.797 178.448 114.763 178.348 114.7 178.267C114.637 178.186 114.549 178.127 114.45 178.101C114.38 178.101 114.311 178.117 114.248 178.148C114.185 178.178 114.131 178.224 114.088 178.279C114.046 178.335 114.017 178.399 114.005 178.468C113.992 178.537 113.995 178.607 114.014 178.674C114.039 178.77 114.096 178.854 114.175 178.913C114.254 178.972 114.351 179.003 114.45 179ZM123.749 177.527C123.966 177.527 124.293 177.31 124.2 176.954C124.106 176.597 123.889 176.566 123.749 176.613C123.642 176.633 123.545 176.689 123.475 176.773C123.405 176.856 123.367 176.962 123.367 177.07C123.367 177.179 123.405 177.284 123.475 177.368C123.545 177.451 123.642 177.508 123.749 177.527ZM125.739 173.776C125.879 173.776 126.014 173.721 126.113 173.622C126.212 173.523 126.268 173.389 126.268 173.249C126.268 173.11 126.212 172.976 126.113 172.877C126.014 172.778 125.879 172.722 125.739 172.722C125.599 172.722 125.464 172.778 125.365 172.877C125.266 172.976 125.21 173.11 125.21 173.249C125.21 173.389 125.266 173.523 125.365 173.622C125.464 173.721 125.599 173.776 125.739 173.776ZM118.882 175.9C119.022 175.9 119.156 175.844 119.255 175.746C119.355 175.647 119.41 175.513 119.41 175.373C119.41 175.233 119.355 175.099 119.255 175C119.156 174.901 119.022 174.846 118.882 174.846C118.741 174.846 118.607 174.901 118.508 175C118.409 175.099 118.353 175.233 118.353 175.373C118.353 175.513 118.409 175.647 118.508 175.746C118.607 175.844 118.741 175.9 118.882 175.9ZM91.0315 181.743C91.1155 181.743 91.1983 181.724 91.2739 181.688C91.3494 181.651 91.4158 181.598 91.4681 181.533C91.5203 181.467 91.5571 181.391 91.5758 181.309C91.5944 181.228 91.5944 181.143 91.5758 181.061C91.5659 180.959 91.5235 180.863 91.4547 180.787C91.3859 180.71 91.2944 180.658 91.1936 180.637C91.0928 180.616 90.9879 180.628 90.8944 180.671C90.8009 180.714 90.7236 180.786 90.6739 180.875C90.6242 180.953 90.5939 181.041 90.5857 181.133C90.5775 181.225 90.5915 181.317 90.6265 181.402C90.6616 181.487 90.7167 181.563 90.7872 181.622C90.8577 181.681 90.9415 181.723 91.0315 181.743ZM117.373 235.048L92.7109 240.178C91.1618 240.504 89.7954 241.406 88.8902 242.7C87.985 243.995 87.6091 245.585 87.8391 247.146C88.0691 248.707 88.8877 250.122 90.128 251.103C91.3684 252.084 92.9372 252.556 94.5147 252.423C95.1989 252.423 93.193 252.563 119.815 247.138C120.682 247.056 121.523 246.794 122.282 246.367C123.042 245.941 123.702 245.36 124.222 244.663C124.742 243.966 125.109 243.167 125.299 242.319C125.49 241.472 125.499 240.594 125.327 239.742C125.155 238.89 124.806 238.084 124.301 237.376C123.796 236.668 123.148 236.073 122.398 235.63C121.648 235.188 120.813 234.907 119.948 234.807C119.082 234.707 118.205 234.789 117.373 235.048ZM119.535 245.712L94.9501 250.842C93.7726 251.009 92.5759 250.72 91.6046 250.036C90.6333 249.352 89.9607 248.324 89.7244 247.162C89.4882 246 89.7059 244.792 90.3333 243.785C90.9607 242.778 91.9502 242.048 93.0997 241.744C111.558 237.853 116.596 236.768 117.98 236.52C119.166 236.373 120.364 236.673 121.339 237.361C122.314 238.05 122.996 239.077 123.251 240.24C123.474 241.449 123.208 242.696 122.512 243.709C121.816 244.723 120.745 245.42 119.535 245.65V245.712Z" fill="black"/>
<path d="M116.254 240.582C114.326 240.83 106.753 243.899 95.1061 245.588C94.6552 245.588 94.7018 246.317 95.1061 246.317C98.8226 246.317 113.3 243.217 116.581 241.434C116.659 241.37 116.716 241.283 116.742 241.186C116.768 241.088 116.763 240.985 116.727 240.89C116.69 240.796 116.625 240.715 116.54 240.66C116.456 240.604 116.355 240.577 116.254 240.582ZM166.481 225.097C160.727 227.112 160.572 235.296 166.387 236.443C167.165 236.57 167.96 236.536 168.724 236.343C169.488 236.151 170.204 235.804 170.828 235.325C171.452 234.845 171.971 234.243 172.352 233.556C172.733 232.868 172.968 232.11 173.043 231.328C174.147 227.841 170.026 224.121 166.481 225.097ZM167.678 235.513C167.052 235.567 166.421 235.485 165.83 235.27C165.239 235.056 164.703 234.715 164.258 234.272C163.814 233.829 163.472 233.294 163.257 232.705C163.042 232.116 162.958 231.487 163.013 230.863C163.34 227.98 165.936 225.376 168.704 226.213C174.535 228.29 171.845 235.172 167.74 235.513H167.678Z" fill="black"/>
<path d="M166.246 229.08C165.806 229.112 165.393 229.299 165.08 229.607C164.489 230.491 164.94 231.157 165.81 231.157C165.686 232.382 165.546 233.87 166.635 233.932C167.008 233.932 168.625 233.622 169.496 233.436C169.599 233.445 169.703 233.432 169.8 233.398C169.898 233.365 169.988 233.311 170.064 233.241C170.14 233.171 170.201 233.086 170.242 232.992C170.284 232.897 170.305 232.795 170.304 232.692C170.304 232.165 170.304 233.033 170.133 230.832C170.569 230.832 170.771 230.63 170.786 230.274L170.693 229.328C170.691 229.261 170.676 229.195 170.648 229.134C170.62 229.073 170.581 229.017 170.532 228.971C170.483 228.925 170.425 228.889 170.362 228.865C170.299 228.842 170.232 228.83 170.164 228.832C169.744 228.832 169.122 228.91 169.122 228.91C169.122 228.91 169.807 228.693 169.9 228.212C169.931 228.096 169.931 227.974 169.898 227.858C169.865 227.742 169.801 227.638 169.714 227.555C169.626 227.472 169.518 227.415 169.4 227.389C169.282 227.363 169.159 227.369 169.045 227.406C168.783 227.548 168.552 227.741 168.365 227.972C168.178 228.204 168.039 228.47 167.956 228.755C166.837 226.724 165.095 227.98 166.246 229.08ZM169.091 230.863C169.091 231.576 169.2 231.87 169.262 232.413C168.687 232.413 167.241 232.847 166.697 232.924C166.679 232.837 166.679 232.748 166.697 232.661V231.111C167.487 230.964 168.288 230.881 169.091 230.863ZM153.464 226.864C148.799 226.352 145.689 231.064 146.979 235.327C147.467 236.534 148.318 237.561 149.415 238.266C150.512 238.971 151.802 239.32 153.106 239.264C160.259 238.799 160.881 227.577 153.464 226.864ZM156.574 236.567C155.618 237.571 154.302 238.156 152.915 238.194C151.527 238.232 150.181 237.719 149.172 236.768C148.355 235.944 147.834 234.874 147.689 233.725C147.543 232.575 147.782 231.41 148.368 230.409C148.954 229.408 149.855 228.628 150.931 228.189C152.006 227.75 153.197 227.677 154.319 227.98C155.165 228.251 155.927 228.733 156.535 229.378C157.143 230.024 157.576 230.814 157.794 231.672C158.011 232.531 158.006 233.431 157.779 234.287C157.552 235.143 157.111 235.928 156.496 236.567H156.574ZM176.804 227.375L179.214 228.46C178.484 229.716 177.815 230.971 177.224 232.165C177.154 232.278 177.132 232.414 177.162 232.544C177.193 232.673 177.274 232.785 177.387 232.855C177.501 232.925 177.637 232.947 177.767 232.916C177.897 232.886 178.009 232.805 178.079 232.692C178.81 231.591 179.634 230.398 180.427 229.003C181.251 229.421 181.531 229.514 183.071 230.15C183.399 230.357 183.793 230.435 184.175 230.367C184.252 230.344 184.323 230.303 184.381 230.248C184.439 230.193 184.484 230.125 184.511 230.05C184.539 229.975 184.548 229.894 184.538 229.814C184.528 229.735 184.5 229.659 184.455 229.592C184.097 229.142 184.066 229.204 181.034 228.042C181.796 226.724 183.273 224.802 182.231 224.477C181.469 224.244 180.676 226.027 179.79 227.577L177.193 226.523C176.587 226.182 176.244 227.143 176.804 227.375ZM119.067 214.433C116.05 214.851 111.028 216.231 101.822 218.029C88.5579 220.633 88.9778 220.276 84.5616 221.47C84.4659 221.496 84.3813 221.552 84.321 221.631C84.2607 221.709 84.228 221.805 84.228 221.904C84.228 222.003 84.2607 222.099 84.321 222.177C84.3813 222.256 84.4659 222.312 84.5616 222.338C87.4228 222.338 113.873 217.083 119.285 215.549C119.417 215.505 119.528 215.414 119.598 215.294C119.669 215.174 119.692 215.032 119.666 214.896C119.639 214.76 119.564 214.637 119.454 214.552C119.344 214.467 119.206 214.425 119.067 214.433ZM132.891 203.071C137.556 202.203 142.61 201.521 147.29 200.405C147.881 200.405 147.835 199.367 147.29 199.429C138.302 200.328 83.1776 211.395 82.3535 212.774C81.3116 214.464 94.5602 210 132.891 203.071ZM158.782 204.001C156.854 202.746 154.614 203.893 153.37 205.706C151.193 209.597 151.971 213.239 153.526 217.44C153.37 217.44 85.479 230.894 85.3702 231.126C85.2613 231.359 85.3702 231.715 85.6812 231.715C90.0507 231.715 148.519 220.075 153.946 218.509C154.395 219.676 154.914 220.815 155.501 221.919C155.562 222.022 155.648 222.107 155.752 222.167C155.855 222.226 155.972 222.259 156.092 222.26C156.838 222.26 163.369 217.781 164.893 216.696C167.101 215.146 169.371 213.441 169.713 210.713C170.304 205.908 163.96 204.792 160.803 207.613C160.629 206.192 159.904 204.895 158.782 204.001ZM47.2727 36.1055C46.343 35.561 45.2827 35.2776 44.2045 35.2855C43.1262 35.2933 42.0702 35.592 41.1486 36.1499C40.2269 36.7078 39.474 37.504 38.9698 38.4541C38.4656 39.4042 38.2289 40.4726 38.2848 41.546C38.2343 41.613 38.207 41.6946 38.207 41.7785C38.207 41.8623 38.2343 41.9439 38.2848 42.011C39.0279 42.9202 40.001 43.6153 41.1037 44.0244C42.2063 44.4334 43.3986 44.5417 44.5573 44.3378C45.7159 44.134 46.799 43.6256 47.6946 42.865C48.5902 42.1044 49.2659 41.1193 49.6518 40.0115C50.0717 39.6705 49.8229 39.2365 49.7607 39.035C49.3472 37.7719 48.4542 36.7204 47.2727 36.1055ZM38.969 41.6545C39.0153 40.633 39.3471 39.6448 39.9268 38.8013C40.5065 37.9577 41.3112 37.2924 42.25 36.8805C40.1974 38.4305 40.835 42.786 43.2919 43.22C41.7052 43.2554 40.1628 42.6969 38.969 41.6545ZM44.8158 42.972C45.3783 42.552 45.8188 41.9905 46.092 41.345C46.3653 40.6995 46.4615 39.9932 46.3708 39.2985C46.3212 38.6678 46.0973 38.0631 45.724 37.5515C45.3507 37.0399 44.8426 36.6413 44.256 36.4C45.1629 36.4041 46.0489 36.6717 46.8056 37.17C47.5623 37.6683 48.1569 38.3756 48.5167 39.2055C48.2554 40.077 47.7888 40.8736 47.1558 41.5288C46.5228 42.184 45.7418 42.6788 44.878 42.972H44.8158ZM55.2187 34.0285C55.1896 33.9001 55.1159 33.7861 55.0106 33.7067C54.9053 33.6273 54.7752 33.5875 54.6434 33.5945C53.6637 33.5945 54.4101 34.7725 53.0884 38.384C53.0603 38.4735 53.0633 38.5699 53.0968 38.6576C53.1303 38.7453 53.1924 38.8192 53.2732 38.8675C53.3539 38.9158 53.4485 38.9356 53.5419 38.9238C53.6353 38.912 53.722 38.8693 53.7881 38.8025C54.131 38.2222 54.4025 37.6029 54.5967 36.958C54.8766 38.3995 55.1721 39.7944 55.4675 41.1274C55.4859 41.2068 55.5198 41.2818 55.5672 41.3482C55.6147 41.4145 55.6748 41.4709 55.7441 41.514C55.8134 41.5572 55.8906 41.5864 55.9712 41.5998C56.0518 41.6133 56.1343 41.6108 56.2139 41.5925C56.2936 41.5741 56.3688 41.5404 56.4354 41.4931C56.5019 41.4457 56.5584 41.3858 56.6018 41.3168C56.6451 41.2477 56.6743 41.1708 56.6878 41.0904C56.7013 41.0101 56.6988 40.9278 56.6804 40.8485C56.245 38.6165 55.7474 36.4 55.2187 34.0285ZM64.9219 38.26C63.5069 38.508 62.6205 38.6785 61.5165 38.973C62.6285 37.5571 63.2602 35.8256 63.3203 34.0285C63.2784 33.5303 63.0846 33.0569 62.765 32.6718C62.4453 32.2867 62.0151 32.0082 61.532 31.874C61.0814 31.7114 60.5917 31.6902 60.1286 31.8132C59.6655 31.9361 59.2513 32.1974 58.9415 32.5618C58.6318 32.9263 58.4413 33.3765 58.3957 33.852C58.35 34.3275 58.4515 34.8056 58.6864 35.222C58.7952 35.6715 59.5572 35.222 59.4483 34.9585C59.3116 34.5837 59.3097 34.1731 59.443 33.7971C59.5763 33.4211 59.8365 33.1029 60.1792 32.897C60.5291 32.7533 60.9195 32.7417 61.2773 32.8644C61.6351 32.9871 61.9358 33.2356 62.1229 33.5635C62.2481 34.0926 62.2602 34.642 62.1584 35.1761C62.0566 35.7102 61.8432 36.217 61.532 36.6635C60.0859 39.5155 59.044 39.7635 59.666 40.4145C59.7338 40.4876 59.8204 40.5407 59.9164 40.568C60.0123 40.5954 60.114 40.5959 60.2103 40.5695C61.9185 40.3344 63.6074 39.977 65.264 39.5C65.3903 39.4255 65.4884 39.3117 65.5433 39.1761C65.5983 39.0405 65.607 38.8907 65.5681 38.7497C65.5292 38.6087 65.4449 38.4844 65.3281 38.3959C65.2113 38.3074 65.0686 38.2596 64.9219 38.26ZM71.7484 36.6635C71.9727 36.0157 71.9851 35.3138 71.784 34.6586C71.5828 34.0033 71.1784 33.4285 70.6289 33.0169C70.0793 32.6052 69.413 32.3778 68.7256 32.3674C68.0383 32.357 67.3653 32.5641 66.8035 32.959C66.7034 32.4977 66.5132 32.0605 66.2437 31.6725C67.4375 31.524 68.6017 31.1947 69.6958 30.696C69.8407 30.6683 69.9752 30.6017 70.0848 30.5034C70.1945 30.405 70.275 30.2787 70.3178 30.1379C70.3426 30.0201 70.3306 29.8974 70.2833 29.7866C70.236 29.6757 70.1558 29.5819 70.0534 29.518C69.618 29.2545 69.1049 29.6109 68.7628 29.7504C62.5428 32.1219 65.9949 30.293 65.8705 34.137C65.8734 34.2556 65.9142 34.3703 65.987 34.4643C66.0598 34.5583 66.1608 34.6266 66.2753 34.6595C66.3897 34.6923 66.5117 34.6879 66.6235 34.6469C66.7353 34.6059 66.831 34.5304 66.8968 34.4315C66.9351 34.393 66.962 34.3447 66.9745 34.292C67.2841 33.8675 67.7443 33.5767 68.2615 33.4787C68.7787 33.3808 69.3139 33.4832 69.758 33.7649C70.0582 33.984 70.2966 34.2767 70.4501 34.6146C70.6036 34.9524 70.667 35.3241 70.6342 35.6935C70.6013 36.063 70.4734 36.4177 70.2626 36.7234C70.0519 37.0291 69.7656 37.2754 69.4314 37.4385C68.6381 37.7354 67.7831 37.8313 66.9434 37.7175C66.4769 37.7175 66.2592 38.198 66.5702 38.477C67.0095 38.7842 67.516 38.9826 68.0476 39.0556C68.5792 39.1287 69.1207 39.0743 69.627 38.897C70.1333 38.7197 70.5899 38.4245 70.9588 38.0361C71.3278 37.6476 71.5984 37.1771 71.7484 36.6635ZM73.3811 34.354C74.3667 34.24 75.3399 34.0377 76.289 33.7495C76.3113 34.8019 76.4841 35.8457 76.8021 36.8495C76.8642 36.9383 76.9497 37.0084 77.0491 37.0521C77.1485 37.0957 77.2581 37.1111 77.3658 37.0967C77.4735 37.0823 77.5751 37.0386 77.6594 36.9703C77.7438 36.9021 77.8077 36.812 77.844 36.71C77.9342 35.5917 77.8128 34.4665 77.4863 33.393C78.0634 33.3117 78.6039 33.0638 79.0413 32.68C79.099 32.6067 79.1368 32.5199 79.1511 32.4278C79.1654 32.3358 79.1557 32.2416 79.1229 32.1544C79.09 32.0672 79.0353 31.9899 78.9638 31.9299C78.8923 31.87 78.8066 31.8293 78.7148 31.812C76.8177 31.564 77.4241 33.0365 76.9265 30.603C76.9265 30.4755 76.8758 30.3533 76.7854 30.2632C76.695 30.1731 76.5723 30.1225 76.4445 30.1225C76.3166 30.1225 76.194 30.1731 76.1036 30.2632C76.0132 30.3533 75.9624 30.4755 75.9624 30.603C75.9624 30.851 75.9624 30.7424 76.0713 32.3389C75.5115 32.4939 75.0139 32.68 74.5163 32.8815C74.0187 33.083 74.8895 31.192 75.0761 28.7585C75.0774 28.6778 75.0501 28.5993 74.9988 28.5368C74.9476 28.4744 74.8758 28.4321 74.7962 28.4175C74.2364 28.309 74.2208 28.898 73.1012 33.61C73.0425 33.746 73.0388 33.8994 73.091 34.0381C73.1432 34.1768 73.2471 34.29 73.3811 34.354Z" fill="black"/>
<path d="M82.5097 34.7105C85.9152 34.7105 86.6927 29.084 83.3961 26.697C81.7322 25.5035 80.0839 25.798 79.3375 27.7355C78.4045 30.355 79.804 34.7105 82.5097 34.7105ZM83.3339 28.5105C84.6556 30.1845 84.3135 32.897 82.8052 33.455C81.2968 34.013 80.0217 31.5795 80.1461 29.394C80.3483 26.4025 82.2143 26.9605 83.3805 28.4485L83.3339 28.5105Z" fill="black"/>
<path d="M89.1029 33.2999C92.9127 33.2999 93.7679 26.9449 90.4091 24.7439C90.1009 24.5087 89.7435 24.3457 89.3634 24.2672C88.9832 24.1887 88.5903 24.1967 88.2137 24.2906C87.8371 24.3844 87.4866 24.5617 87.1882 24.8093C86.8899 25.0568 86.6514 25.3683 86.4905 25.7204C86.0748 26.3331 85.8281 27.0441 85.7752 27.7819C85.1843 30.1999 86.5527 33.2999 89.1029 33.2999ZM87.0037 26.6349C87.0916 26.3853 87.231 26.1569 87.413 25.9644C87.5951 25.7719 87.8155 25.6196 88.0603 25.5174C88.305 25.4151 88.5686 25.3652 88.8339 25.3708C89.0992 25.3764 89.3604 25.4374 89.6005 25.5499C92.0419 27.0999 91.5598 32.8659 88.1388 31.7499C87.6465 31.4047 87.2538 30.9366 87 30.3926C86.7462 29.8486 86.6403 29.2476 86.6927 28.6499C86.6818 27.9656 86.7869 27.2843 87.0037 26.6349ZM93.9856 30.6494C94.2811 30.6494 93.6435 30.6494 95.7428 30.3394C96.8624 30.1689 96.6913 30.1999 98.293 29.8744C98.8514 29.8513 99.3912 29.6684 99.848 29.3474C99.9762 29.217 100.048 29.0417 100.048 28.8592C100.048 28.6766 99.9762 28.5013 99.848 28.3709C99.4748 27.9989 98.5418 28.1384 98.0597 28.3709C96.3648 28.7429 96.598 28.6809 95.5406 28.9754C96.3403 27.7235 96.8699 26.3194 97.0956 24.8524C97.2978 23.3024 95.9916 21.9229 94.7165 22.3569C94.4604 22.4303 94.2329 22.58 94.0646 22.7859C93.8963 22.9919 93.7952 23.2442 93.7749 23.509C93.7546 23.7739 93.816 24.0386 93.951 24.2676C94.0859 24.4967 94.2879 24.6791 94.5299 24.7904C95.3851 25.1624 95.4318 24.1239 95.0897 24.0774C95.0131 24.0561 94.9464 24.0088 94.901 23.9438C94.8556 23.8787 94.8343 23.7999 94.8409 23.7209C94.8409 23.1784 95.3696 23.2094 95.665 23.4729C96.9246 24.6974 94.8564 28.2004 93.5502 29.6729C93.4917 29.7618 93.4565 29.864 93.4479 29.9699C93.4393 30.0759 93.4574 30.1824 93.5008 30.2795C93.5441 30.3767 93.6112 30.4615 93.6959 30.5261C93.7806 30.5907 93.8802 30.6331 93.9856 30.6494ZM101.279 26.5419C101.823 26.5419 101.667 26.2319 102.414 23.6589C103.502 28.3089 103.564 28.6034 104.124 28.8669C104.209 28.9323 104.313 28.9677 104.42 28.9677C104.527 28.9677 104.631 28.9323 104.715 28.8669C105.119 28.3244 104.948 28.0764 103.907 24.4184C103.036 21.3959 103.036 21.2409 102.445 21.2254C102.335 21.2311 102.23 21.2742 102.148 21.3475C102.066 21.4208 102.012 21.52 101.994 21.6284C101.698 23.0699 101.31 24.4804 100.859 26.0459C100.86 26.1642 100.903 26.2783 100.98 26.3688C101.056 26.4592 101.162 26.5204 101.279 26.5419ZM150.23 194.128L152.267 196.081C152.749 196.685 153.946 197.894 154.708 197.894C155.47 197.894 156.263 196.825 156.823 195.988C158.245 194.365 159.334 192.48 160.026 190.439C160.726 186.827 156.155 184.022 153.9 188.889C152.205 186.223 145.783 187.013 147.12 190.439C147.857 191.891 148.922 193.154 150.23 194.128ZM202.898 89.4409C202.383 89.1053 201.773 88.945 201.159 88.9842C200.545 89.0233 199.96 89.2597 199.492 89.6579C198.376 90.7975 197.577 92.2081 197.175 93.7499C196.331 95.6977 195.594 97.6898 194.967 99.7174C194.672 100.973 195.372 100.973 195.652 100.74C198.419 100.957 207.625 98.8494 207.423 95.7494C207.265 95.0198 206.831 94.3789 206.211 93.9603C205.591 93.5416 204.833 93.3774 204.095 93.5019C204.322 92.783 204.33 92.0129 204.117 91.2897C203.904 90.5665 203.479 89.9229 202.898 89.4409ZM202.54 141.071C204.748 138.08 206.754 134.53 206.334 130.469C206.293 129.401 206.014 128.355 205.52 127.407C205.025 126.458 204.326 125.63 203.473 124.982C201.514 123.82 199.29 125.494 197.797 126.625C190.24 132.298 187.892 141.955 185.777 150.232C185.342 151.983 184.875 153.781 184.611 155.548C183.631 158.912 186.275 159.609 188.53 159.795C195.201 160.307 204.966 156.54 211.715 154.649C214.98 153.735 220.454 152.2 220.36 147.457C220.298 142.234 210.968 137.398 202.54 141.071ZM193.832 87.3174C193.89 87.3944 193.965 87.4569 194.052 87.5C194.138 87.543 194.233 87.5654 194.33 87.5654C194.426 87.5654 194.522 87.543 194.608 87.5C194.694 87.4569 194.769 87.3944 194.827 87.3174C199.37 80.6689 203.434 73.7074 206.987 66.4854C209.864 60.2854 206.365 52.3029 199.819 53.7134C197.144 54.3334 194.827 56.3949 192.946 59.8359C192.307 57.6776 190.866 55.843 188.918 54.7054C182.465 51.0784 175.11 58.0534 178.671 64.4859C182.81 72.6622 187.899 80.3252 193.832 87.3174ZM88.7297 98.8339C88.7414 99.2675 88.7988 99.6987 88.9008 100.12C88.9941 101.05 89.1185 102.042 90.0515 102.042C90.174 102.038 90.2946 102.01 90.4062 101.96C90.5179 101.909 90.6185 101.838 90.7023 101.748C90.786 101.659 90.8513 101.554 90.8944 101.44C90.9375 101.325 90.9575 101.204 90.9534 101.081C90.8065 100.241 90.5827 99.4163 90.2847 98.6169C90.209 98.4599 90.0852 98.331 89.9311 98.2488C89.7771 98.1665 89.6008 98.1352 89.4277 98.1594C89.2547 98.1835 89.0938 98.2619 88.9683 98.3831C88.8429 98.5044 88.7593 98.6622 88.7297 98.8339ZM106.566 96.3229C106.398 96.1968 106.19 96.1365 105.98 96.1537C105.771 96.1708 105.575 96.2642 105.43 96.4159C104.762 96.7259 104.653 100.353 106.13 100.353C106.356 100.36 106.576 100.285 106.75 100.143C106.925 100 107.041 99.7995 107.079 99.5779C107.079 98.8804 106.985 98.9579 106.985 98.4929C106.985 96.8499 106.861 96.5554 106.566 96.3229ZM155.937 230.739C155.237 229.452 153.402 229.855 152.827 231.188C152.679 230.998 152.493 230.84 152.282 230.724C152.071 230.608 151.838 230.536 151.598 230.513C151.357 230.49 151.115 230.516 150.885 230.589C150.655 230.663 150.443 230.782 150.261 230.94C150 231.175 149.794 231.464 149.655 231.786C149.517 232.108 149.45 232.456 149.458 232.806C149.467 233.157 149.552 233.501 149.707 233.815C149.861 234.13 150.082 234.408 150.354 234.629C151.287 235.291 152.282 235.862 153.324 236.334C153.487 236.442 153.674 236.506 153.869 236.52C154.304 236.52 154.491 235.823 154.662 235.497C155.719 233.343 156.419 232.211 155.937 230.739ZM136.219 234.908C136.484 236.458 136.717 238.194 136.826 238.706L139.78 238.024C139.998 238.024 140.014 238.132 139.236 234.35C138.215 234.437 137.204 234.624 136.219 234.908Z" fill="black"/>
<path d="M136.375 230.832C135.249 231.274 134.264 232.012 133.525 232.967C132.786 233.922 132.32 235.059 132.177 236.257C132.046 237.014 132.082 237.79 132.282 238.532C132.482 239.274 132.842 239.964 133.336 240.554C133.83 241.143 134.446 241.619 135.143 241.948C135.84 242.276 136.6 242.45 137.37 242.457C138.566 242.404 139.727 242.046 140.743 241.416C141.759 240.786 142.595 239.906 143.171 238.861C144.912 234.8 141.056 229.53 136.375 230.832ZM141.04 238.241V238.458C140.698 239.295 140.2 239.372 137.448 239.853L137.013 239.93C136.849 239.983 136.677 240.003 136.505 239.987C136.334 239.971 136.168 239.92 136.018 239.837C135.895 239.757 135.793 239.65 135.72 239.523C135.647 239.397 135.605 239.255 135.598 239.109C135.598 238.954 135.598 238.504 135.473 237.931C135.297 236.906 135.198 235.87 135.178 234.831C135.116 234.634 135.116 234.423 135.178 234.226C135.231 234.104 135.313 233.996 135.415 233.91C135.518 233.823 135.639 233.762 135.769 233.73C136.923 233.428 138.098 233.205 139.283 233.064C139.49 233.061 139.692 233.124 139.86 233.244C140.028 233.364 140.153 233.534 140.216 233.73C140.511 235.187 140.683 236.102 140.807 236.706C140.974 237.2 141.053 237.72 141.04 238.241Z" fill="black"/>
</svg>
