<svg width="289" height="301" viewBox="0 0 289 301" fill="none" xmlns="http://www.w3.org/2000/svg">
<path d="M98.463 229.408C101.088 228.478 103.778 227.741 106.511 227.203L106.842 228.415C106.879 228.558 106.966 228.683 107.088 228.767C107.209 228.851 107.357 228.888 107.503 228.872L118.324 227.612C121.3 220.824 126.766 210.539 126.844 210.382C126.766 207.814 126.844 205.657 126.844 203.2C120.655 205.499 109.204 209.862 103.219 212.65C103.084 212.737 102.98 212.864 102.92 213.014C102.861 213.164 102.85 213.328 102.889 213.484C102.889 213.484 102.999 213.878 103.141 214.445C100.211 214.445 91.4385 214.02 89.328 216.02C88.9998 216.477 88.8386 217.033 88.8712 217.595C88.7452 219.769 89.832 236.653 91.5645 241.614C92.4622 244.213 94.3522 243.929 95.6437 241.441C97.1385 237.693 98.0982 233.753 98.4945 229.738C98.4945 229.534 98.4472 229.549 98.463 229.408ZM96.6517 215.311C98.5732 215.154 99.1717 215.185 103.298 215.059C104.038 217.863 105.566 223.627 106.354 226.573C103.575 227.003 100.832 227.64 98.148 228.478C97.3116 224.134 96.8114 219.732 96.6517 215.311Z" fill="black"/>
<path d="M243.425 77.4671C243.819 76.9159 243.315 76.2071 242.889 75.6559C244.094 74.4168 245.43 73.313 246.874 72.3641C249.311 71.1497 251.539 69.5547 253.473 67.6391C254.277 66.8044 255.789 65.0876 255.222 64.0796C254.655 63.0716 253.647 63.0086 252.276 63.5914C252.87 62.9681 253.354 62.2493 253.71 61.4651C254.151 60.2366 253.111 59.2444 250.859 60.1579C251.678 58.8506 251.867 57.4804 250.481 56.8189C249.363 56.2834 247.725 57.5591 246.78 58.3939C244.924 60.0152 243.182 61.7623 241.566 63.6229C240.574 61.5439 238.999 59.1499 237.03 59.9059C235.062 60.6619 236.589 64.0481 237.597 65.8909L234.022 68.3636C233.482 68.0719 232.871 67.9356 232.258 67.9699C228.195 68.6629 209.531 82.8694 207.641 82.8694C206.192 82.8694 185.496 72.9469 167.604 70.0804C167.57 69.973 167.506 69.8777 167.419 69.8052C167.333 69.7328 167.228 69.6862 167.116 69.6709C163.995 69.1383 160.831 68.901 157.666 68.9621C157.57 68.9686 157.477 68.9959 157.392 69.0421C157.308 69.0884 157.235 69.1524 157.178 69.2299H155.855C155.54 67.9541 154.374 65.0089 153.965 63.8749C155.036 62.9456 156.516 62.4731 157.288 60.9769C158.706 58.2049 158.643 53.3854 158.249 50.2984C160.029 48.9439 160.076 46.7704 159.666 44.5496C159.509 43.6519 159.021 41.6201 158.265 41.1161C157.839 40.8326 156.942 41.1161 156.17 41.3996C155.398 39.6041 155.398 40.4231 155.713 39.6986C155.859 39.3647 155.945 39.0073 155.965 38.6434C156.8 38.8954 158.532 37.2259 157.934 35.0209C157.62 34.2315 157.235 33.4724 156.784 32.7529C157.005 32.2174 157.477 31.5716 155.997 29.6029C155.359 28.9151 154.531 28.4326 153.618 28.2169H152.894C152.371 27.4581 151.604 26.9021 150.72 26.6419C149.386 26.3017 147.972 26.4997 146.783 27.1931C146.468 27.4294 146.216 27.7444 145.901 27.9649C145.189 27.5324 144.371 27.3037 143.538 27.3037C142.705 27.3037 141.888 27.5324 141.176 27.9649C140.759 28.1285 140.379 28.3746 140.06 28.6886C139.741 29.0025 139.488 29.3778 139.317 29.7919C138.546 29.5256 137.727 29.4231 136.913 29.4909C136.1 29.5587 135.309 29.7953 134.592 30.1856C131.871 31.661 129.836 34.1428 128.922 37.0999C128.897 37.5458 128.897 37.9927 128.922 38.4386H128.749C126.387 38.0921 123.378 43.6991 125.788 48.0619C126.072 48.5816 126.434 49.0699 126.78 49.6369C127.788 51.2119 127.395 51.6844 129.647 53.6059C130.308 54.1729 130.419 54.1256 130.828 54.4721C131.238 54.8186 131.08 54.6454 131.316 55.5274C131.445 56.0469 131.676 56.5358 131.995 56.9657C132.314 57.3955 132.715 57.7578 133.175 58.0316C133.342 59.5722 133.999 61.0184 135.049 62.1581C135.382 62.5302 135.769 62.8489 136.199 63.1031C136.315 63.1684 136.444 63.2061 136.577 63.2134C137.049 66.1429 137.632 69.9544 137.884 71.5766L136.482 72.3326C134.648 73.0706 132.865 73.9282 131.143 74.8999C131.008 74.9933 130.913 75.1337 130.875 75.2936C129.206 76.1756 127.631 77.0104 126.733 77.5459C114.228 84.9641 78.7113 133.868 78.349 136.104C78.3091 136.233 78.3091 136.37 78.349 136.498C78.8581 137.31 79.4784 138.047 80.1918 138.687C79.972 139.088 79.7078 139.464 79.4043 139.806C76.2543 141.869 71.5293 144.94 68.9935 147.681C68.8157 147.839 68.6823 148.041 68.6064 148.267C68.5306 148.493 68.515 148.735 68.5611 148.969C68.6072 149.202 68.7135 149.42 68.8694 149.6C69.0253 149.78 69.2256 149.917 69.4503 149.996C69.9228 150.153 70.0015 150.106 73.0728 148.421C72.2287 149.161 71.5384 150.06 71.041 151.067C70.8363 151.933 71.6238 152.437 72.616 152.28C73.1743 152.133 73.7059 151.899 74.191 151.587C73.907 152.025 73.7558 152.537 73.7558 153.059C73.7558 153.582 73.907 154.093 74.191 154.532C75.766 156.516 79.8925 150.264 82.066 148.72C82.948 149.838 84.145 152.453 86.0508 151.76C87.7045 151.146 85.8933 147.507 86.0508 146.452C86.6916 145.837 87.3759 145.268 88.0983 144.751C89.3133 145.652 90.7025 146.29 92.1775 146.625C94.7763 146.625 121.898 119.252 123.961 117.063C123.221 124.024 119.488 153.902 120.276 159.714C120.638 162.344 126.954 162.722 129.615 162.864C128.812 181.764 128.277 210.397 128.135 210.696C123.961 219.69 122.827 222.147 121.425 224.871C118.874 229.754 108.132 247.772 106.92 251.867C106.746 252.513 106.731 252.765 107.408 253.962C105.378 256.095 103.494 258.363 101.769 260.75C100.903 262.325 104.62 277.004 107.25 282.201C107.849 283.367 108.825 285.162 110.133 285.115C114.07 284.973 114.054 270.83 113.944 266.877C113.943 266.755 113.899 266.637 113.818 266.546C114.532 265.481 115.31 264.46 116.149 263.49C116.65 263.835 117.176 264.14 117.724 264.404C118.26 264.64 118.858 264.231 119.299 263.868C124.544 259.742 152.831 224.493 158.895 207.861C161.651 200.27 165.321 189.78 166.36 182.346C166.996 177.646 167.054 172.886 166.533 168.171C166.533 168.105 166.56 168.04 166.607 167.993C166.654 167.946 166.718 167.919 166.785 167.919C166.852 167.919 166.916 167.946 166.963 167.993C167.011 168.04 167.037 168.105 167.037 168.171C167.826 172.913 167.98 177.738 167.494 182.52C166.329 192.836 158.186 214.335 153.839 222.241C157.587 221.548 165.21 220.036 168.896 218.934C181.181 215.201 192.521 204.066 193.513 191.56C193.834 185.669 193.834 179.764 193.513 173.873C193.407 165.74 192.35 157.647 190.363 149.76C193.702 147.948 196.758 145.822 197.75 143.869C199.876 139.695 194.253 115.677 193.025 108.936C199.75 109.676 211.2 111.015 216.54 106.841C222.651 101.927 235.849 88.0984 243.425 77.4671ZM113.094 266.01C110.259 264.294 106.29 260.214 105.691 257.017C106.337 256.198 107.014 255.442 107.644 254.592C109.779 257.849 112.44 260.728 115.519 263.112C114.654 264.03 113.844 264.997 113.094 266.01ZM238.306 66.3319C238.387 66.2799 238.446 66.1987 238.469 66.1049C238.493 66.0112 238.479 65.9121 238.432 65.8279C237.881 64.8041 236.227 61.1974 237.377 60.7879C238.038 60.5359 238.621 60.9454 239.109 61.4966C239.855 62.4425 240.435 63.5074 240.826 64.6466C240.855 64.7392 240.909 64.8222 240.982 64.8866C241.054 64.951 241.143 64.9944 241.239 65.0122C241.334 65.03 241.433 65.0215 241.524 64.9876C241.615 64.9537 241.695 64.8957 241.755 64.8199C243.33 63.0716 247.016 59.0869 249.095 58.0159C250.67 57.1969 251.048 58.7089 247.189 62.2369C246.303 62.9127 245.451 63.6328 244.638 64.3946C244.593 64.4565 244.569 64.5309 244.569 64.6072C244.569 64.6836 244.593 64.758 244.638 64.8199C244.638 65.2294 244.968 65.6861 245.535 65.2609C246.904 64.0591 248.351 62.9489 249.867 61.9376C250.64 61.3882 251.539 61.0416 252.481 60.9296C252.009 62.3786 247.614 66.3161 247.236 66.7571C247.116 66.8646 247.044 67.0148 247.033 67.1755C247.023 67.3361 247.076 67.4944 247.182 67.6161C247.287 67.7379 247.436 67.8135 247.596 67.8267C247.757 67.8398 247.916 67.7894 248.04 67.6864C249.788 66.5524 252.843 63.9064 253.899 64.3001C254.954 64.6939 251.82 67.6234 251.032 68.3164C246.512 72.2381 247.677 69.7181 242.448 75.0416C240.172 72.5483 237.559 70.3853 234.684 68.6156L238.306 66.3319ZM169.872 141.664C169.605 139.491 169.274 137.144 168.864 134.703L169.542 133.805C172.692 129.757 173.637 123.315 173.337 118.26C175.023 125.646 176.361 132.907 177.385 140.121L169.872 141.664ZM146.452 87.7361C142.31 84.5861 135.648 79.1524 131.773 75.4354L138.073 72.2854C143.858 77.6889 148.81 83.9201 152.768 90.7759C158.819 101.893 163.308 113.791 166.108 126.135L143.649 94.3669L146.578 88.2874C146.617 88.1938 146.626 88.0904 146.603 87.9916C146.58 87.8929 146.528 87.8036 146.452 87.7361ZM157.099 69.8756C157.194 70.0489 158.28 72.3641 159.934 76.4119C159.934 76.5851 159.635 80.5226 159.493 81.9086C157.483 81.1118 155.587 80.0526 153.855 78.7586C154.201 77.3884 155.76 71.1671 155.871 69.7654L157.099 69.8756ZM151.508 86.7911C151.618 86.5076 151.728 86.1296 151.854 85.6886L152.91 86.2399C153.508 86.6336 153.272 85.4366 153.807 88.9016C153.807 89.4844 153.965 90.1301 153.996 90.8389C153.272 89.5316 152.374 88.1299 151.524 86.7911H151.508ZM150.626 85.4681C147.65 81.2477 144.263 77.333 140.514 73.7816L152.374 78.9319C151.917 80.0186 151.256 83.3419 150.642 85.4681H150.626ZM162.738 94.6976C161.163 90.3979 159.95 85.5941 159.351 84.3341C159.387 83.9412 159.387 83.5458 159.351 83.1529C159.579 83.2377 159.818 83.2907 160.06 83.3104C160.212 83.3121 160.359 83.2588 160.475 83.1604C160.591 83.062 160.667 82.9251 160.69 82.7749C160.816 82.2551 161.021 79.6249 161.052 79.0421C165.634 90.6097 169.459 102.463 172.503 114.527C163.604 95.5954 164.974 101.076 162.753 94.6976H162.738ZM175.763 124.764C172.172 107.55 165.856 86.0824 158.674 70.1749C161.312 70.1763 163.945 70.387 166.549 70.8049C167.888 82.7749 166.77 82.3654 167.667 82.8379C168.565 83.3104 173.967 85.4839 174.771 85.8146C174.692 87.0274 175.826 121.709 175.779 124.764H175.763ZM157.635 42.1241C158.456 43.9159 158.745 45.9056 158.469 47.8571C158.341 48.3538 158.078 48.8052 157.708 49.161C157.339 49.5168 156.878 49.7631 156.376 49.8724C155.875 49.9818 155.353 49.95 154.869 49.7805C154.385 49.611 153.958 49.3105 153.634 48.9124C152.883 47.3293 152.317 45.6644 151.949 43.9511C152.374 43.3999 156.91 42.2974 157.635 42.1241ZM135.963 57.8741C135.387 57.6122 134.798 57.3808 134.199 57.1811C133.796 57.0156 133.437 56.7602 133.148 56.4343C132.859 56.1085 132.649 55.7209 132.534 55.3012C132.418 54.8816 132.4 54.441 132.481 54.0134C132.562 53.5857 132.74 53.1823 133.002 52.8341C133.994 51.9994 134.892 52.0466 135.711 53.2909C136.23 54.2516 136.215 54.3304 136.451 54.4249C136.519 54.4547 136.592 54.4698 136.666 54.469C136.74 54.4682 136.813 54.4516 136.88 54.4202C136.947 54.3889 137.007 54.3436 137.055 54.2874C137.103 54.2311 137.139 54.1652 137.16 54.0941C137.393 53.1083 137.43 52.0862 137.27 51.0859C137.081 49.9991 137.049 45.1796 137.081 45.0221C137.541 45.2646 138.058 45.3789 138.577 45.3529C141.428 45.2426 141.995 43.7779 143.129 42.5809C144.436 42.7069 144.704 43.3369 146.184 42.5809C146.878 42.1865 147.513 41.699 148.074 41.1319C148.527 41.3172 148.964 41.5384 149.382 41.7934C150.325 42.2473 151.39 42.3867 152.419 42.1911C153.448 41.9955 154.387 41.4752 155.099 40.7066C155.272 41.0374 155.43 41.3681 155.571 41.7146C154.124 42.1637 152.761 42.8503 151.539 43.7464C151.272 44.0771 151.665 45.8726 151.76 46.2979C150.44 46.4639 149.164 46.8752 147.996 47.5106C147.759 46.6916 147.24 45.1639 146.421 44.7386C146.174 44.6632 145.911 44.6632 145.665 44.7386C144.247 44.9591 139.16 46.4869 138.546 47.3216C138.01 47.9044 139.538 52.4089 140.01 53.1491C141.822 55.9526 147.129 55.1336 148.122 51.8576C148.367 50.7582 148.367 49.6181 148.122 48.5186C148.578 48.5186 149.949 48.0304 150.106 47.9831C151.193 50.4244 151.508 50.5661 152.768 53.1964C152.595 53.3381 152.311 53.5744 152.075 53.7319C150.957 54.4721 150.72 54.3461 150.783 54.6611C150.802 54.7236 150.842 54.7773 150.897 54.8121C150.952 54.8469 151.018 54.8604 151.083 54.8501C151.744 54.7557 152.389 54.5757 153.004 54.3146C153.372 54.1774 153.675 53.9078 153.855 53.5586C154.296 52.5664 151.854 48.8336 150.894 47.7154C151.083 47.7154 151.524 47.4004 151.854 47.2271C152.295 48.9911 152.595 50.3771 154.296 51.0701C154.787 51.2557 155.311 51.3402 155.836 51.3186C156.361 51.2969 156.876 51.1696 157.351 50.9441C157.603 53.7161 157.556 58.2206 156.233 60.6776C155.556 61.9534 153.886 62.4416 152.815 63.4969C152.5 63.7961 152.705 64.2214 152.815 64.6781C154.563 69.5449 154.595 69.5291 154.5 70.1591C154.037 72.774 153.389 75.3528 152.563 77.8766C152.169 77.7034 147.744 75.3566 139.081 71.9861C138.813 70.2064 137.38 60.7091 136.923 58.9609C136.955 58.3466 136.876 58.2049 135.963 57.7954V57.8741ZM146.988 51.4481C146.484 53.1649 144.105 53.9051 142.404 53.4326C140.703 52.9601 140.593 52.0939 139.79 50.0464C139.413 49.2642 139.153 48.4311 139.018 47.5736C139.538 47.0066 145.224 45.8411 145.932 45.7309C146.926 47.4314 147.299 49.4244 146.988 51.3694V51.4481ZM85.3578 146.011C84.7593 146.594 85.5625 148.5 85.6885 150.153C85.6885 150.295 85.6885 150.909 85.594 150.957C84.7278 151.24 83.9245 149.933 83.4363 149.145C82.948 148.358 82.4598 147.287 81.688 147.57C80.113 148.311 76.459 153.162 75.0258 153.666C74.3013 152.28 78.4435 148.326 78.5853 148.106C78.6461 148.005 78.6779 147.889 78.6774 147.771C78.6768 147.652 78.6439 147.537 78.5822 147.436C78.5205 147.335 78.4323 147.254 78.3274 147.2C78.2224 147.145 78.1046 147.121 77.9868 147.129C77.7033 147.129 77.5143 147.381 77.0733 147.775C75.7319 149.084 74.1966 150.179 72.5215 151.02C74.0403 149.277 75.6657 147.631 77.3883 146.09C77.4734 146.002 77.5332 145.894 77.5615 145.775C77.5615 145.775 77.2308 144.94 76.585 145.271C75.6715 145.775 71.23 148.342 69.8283 149.004C69.6393 148.878 69.7495 148.689 69.8283 148.5C72.049 145.775 76.9315 142.467 79.924 140.373C80.2753 140.011 80.5676 139.596 80.7903 139.144C82.8628 141.072 85.0737 142.846 87.4053 144.452C86.687 144.923 86.0028 145.444 85.3578 146.011ZM122.008 160.328C121.662 160.107 121.41 159.903 121.362 159.619C120.496 153.193 125.316 116.779 125.237 115.346C125.237 115.262 125.22 115.179 125.187 115.101C125.155 115.024 125.107 114.953 125.047 114.895C124.987 114.836 124.915 114.79 124.837 114.759C124.759 114.728 124.675 114.714 124.591 114.716C123.788 114.716 125.205 114.716 105.14 133.931C103.817 135.175 93.7053 144.846 92.02 145.491C89.7048 145.318 80.995 138.372 79.5775 136.183C82.318 130.639 115.551 85.0271 127.048 78.0499C127.93 77.5144 129.442 76.6796 131.096 75.7976C131.668 76.337 132.284 76.8269 132.939 77.2624C136.593 80.7274 141.68 85.0429 145.539 88.2874L142.53 94.2566C142.485 94.3356 142.461 94.4253 142.461 94.5165C142.461 94.6077 142.485 94.6973 142.53 94.7764C166.959 129.82 166.596 129.426 166.754 129.426C168.32 137.524 169.294 145.725 169.668 153.965C169.668 156.186 169.668 155.997 169.762 155.839C169.857 155.682 169.762 155.949 169.762 155.949C165.951 160.107 128.229 163.982 122.008 160.328ZM209.074 108.148C201.939 109.14 193.875 107.66 192.316 107.597C191.45 103.398 189.723 99.4244 187.245 95.9261C187.207 95.8751 187.151 95.8403 187.089 95.8286C187.026 95.8169 186.962 95.8292 186.908 95.8631C186.854 95.8969 186.815 95.9498 186.799 96.0111C186.782 96.0724 186.79 96.1377 186.819 96.1939C187.733 98.0524 190.788 106.069 191.544 108.022C191.308 108.778 198.663 139.191 196.584 143.286C194.726 146.988 183.906 151.65 180 152.988C179.227 144.22 177.965 135.502 176.22 126.875C176.755 122.339 176.062 95.3749 175.857 85.4051C175.851 85.2893 175.813 85.1775 175.746 85.0827C175.679 84.988 175.586 84.9141 175.479 84.8696L168.408 81.8929C168.375 78.15 168.139 74.4117 167.699 70.6946C185.355 73.7501 205.924 83.8459 207.641 83.8616C210.129 83.8616 228.62 69.6866 232.447 69.1196C234.148 68.8519 241.456 75.2306 242.307 76.9946C234.841 87.4211 221.721 101.124 215.642 105.864C213.683 107.174 211.422 107.96 209.074 108.148Z" fill="black"/>
<path d="M145.365 48.2981C145.346 48.1947 145.306 48.0962 145.248 48.0081C145.191 47.9201 145.116 47.8443 145.029 47.7851C144.942 47.7259 144.844 47.6843 144.741 47.6629C144.638 47.6415 144.532 47.6406 144.428 47.6602C144.325 47.6799 144.226 47.7197 144.138 47.7774C144.05 47.8352 143.975 47.9097 143.915 47.9967C143.856 48.0837 143.815 48.1815 143.793 48.2846C143.772 48.3877 143.771 48.4939 143.79 48.5974C144.105 50.1724 144.168 50.5346 144.861 50.5346C144.992 50.5351 145.121 50.5028 145.237 50.4409C145.352 50.3789 145.45 50.2891 145.522 50.1796C145.594 50.0701 145.638 49.9444 145.649 49.8139C145.66 49.6834 145.638 49.5522 145.586 49.4321C145.539 49.1801 145.397 48.4399 145.365 48.2981ZM150.185 58.7246C151.209 59.0239 152.185 58.5356 152.154 58.2836C152.122 58.0316 152.154 58.1576 150.768 57.6379C149.838 57.2914 148.815 56.0629 148.452 56.2519C148.09 56.4409 148.641 57.4489 148.767 57.6379C149.104 58.1491 149.604 58.5319 150.185 58.7246ZM178.992 43.7621C176.928 52.4089 175.416 59.7484 175.164 61.2131C174.997 61.8504 174.965 62.5156 175.07 63.1661C175.905 64.9459 186.693 68.4581 188.064 67.7651C189.434 67.0721 192.993 59.0554 197.136 50.7866C199.673 50.8677 202.212 50.6829 204.711 50.2354C207.343 49.7526 209.904 48.9431 212.334 47.8256C217.658 45.3686 223.485 34.8476 224.273 29.5556C224.864 23.8101 223.647 18.0235 220.792 13.0024C207.578 -9.91388 168.817 2.41837 171.967 27.8704C172.867 33.6943 175.29 39.1768 178.992 43.7621ZM188.599 62.5204C188.599 62.7724 188.316 62.7409 187.024 62.5204C184.383 62.1884 181.825 61.3714 179.48 60.1106C178.377 59.5121 178.078 59.3861 178.188 59.1184C178.299 58.8506 178.535 58.9451 180.236 59.4176C180.393 59.4176 185.276 60.9926 186.678 61.4809C188.489 62.2999 188.599 62.2999 188.599 62.5204ZM188.316 36.8951C189.998 36.9823 191.674 36.6352 193.182 35.8871C194.585 36.5665 196.102 36.9778 197.655 37.0999C195.009 42.0296 189.639 52.0781 187.906 57.4331L181.228 55.5904C182.803 51.7159 186.284 42.6439 188.284 36.8951H188.316ZM187.764 35.5879C186.589 35.4102 185.504 34.8519 184.676 33.9984C183.848 33.1449 183.323 32.0434 183.181 30.8629C182.74 27.7129 184.756 24.1849 187.796 25.0196C189.702 25.5394 189.938 27.0514 189.607 28.9571C189.324 30.3431 188.3 33.8239 187.733 35.5249L187.764 35.5879ZM192.048 31.8079C192.217 30.7773 192.603 29.7945 193.182 28.9256C193.458 28.4519 193.861 28.0651 194.345 27.8089C194.83 27.5528 195.376 27.4376 195.923 27.4766C197.088 27.8231 197.592 30.0281 196.632 31.4141C195.708 32.6394 194.559 33.6766 193.245 34.4696C192.793 34.2044 192.434 33.8072 192.214 33.3313C191.994 32.8555 191.926 32.3239 192.017 31.8079H192.048ZM177.574 11.7896C184.63 3.30037 197.907 -0.0701333 207.499 3.42637C212.71 5.215 217.093 8.83659 219.831 13.6166C222.547 18.3945 223.708 23.8989 223.155 29.3666C222.43 34.2649 216.855 44.4394 211.956 46.6916C207.478 48.7344 202.592 49.7257 197.671 49.5896C197.136 49.5896 196.569 49.5896 196.364 49.9676C195.435 51.8576 193.734 55.5116 192.064 58.9451C190.911 58.3884 189.716 57.925 188.489 57.5591C190.316 52.3301 196.08 42.0611 198.821 37.0841C201.195 37.2875 203.582 36.8753 205.751 35.8871C206.337 35.5787 206.823 35.1095 207.151 34.5347C207.48 33.9599 207.638 33.3033 207.606 32.6419C207.575 31.9805 207.356 31.3418 206.974 30.8007C206.592 30.2596 206.064 29.8386 205.452 29.5871C203.01 28.3901 200.821 31.2566 199.545 33.6664C199.199 34.2964 198.805 35.0366 198.364 35.8714C197.09 35.7877 195.834 35.5279 194.631 35.0996C195.829 34.2578 196.892 33.2381 197.781 32.0756C198.28 31.3226 198.533 30.4333 198.505 29.5306C198.476 28.6278 198.169 27.7561 197.624 27.0356C197.196 26.5387 196.602 26.215 195.952 26.1251C195.303 26.0352 194.643 26.1853 194.096 26.5474C192.993 27.2251 192.109 28.2068 191.55 29.3747C190.991 30.5425 190.782 31.8467 190.946 33.1309C191.117 33.8557 191.508 34.5102 192.064 35.0051C191.031 35.433 189.922 35.6473 188.804 35.6351C189.434 33.7766 190.458 30.4219 190.725 29.0516C190.893 28.2704 190.931 27.4668 190.836 26.6734C190.714 25.9923 190.398 25.3609 189.926 24.8551C189.453 24.3494 188.845 23.9908 188.174 23.8226C184.347 22.7359 181.527 26.9726 182.079 30.9259C182.234 32.3426 182.842 33.6714 183.813 34.7154C184.783 35.7594 186.064 36.463 187.465 36.7219C185.449 42.3919 182.299 51.5426 180.724 55.4486L177.259 54.5509C179.48 43.3999 179.748 43.6676 179.433 43.5259C175.854 38.9631 173.564 33.5243 172.802 27.7759C172.431 24.9255 172.664 22.0289 173.486 19.2746C174.308 16.5203 175.701 13.97 177.574 11.7896ZM199.435 35.9659C200.538 33.9656 202.743 29.5871 204.885 30.6581C205.313 30.8307 205.686 31.1171 205.964 31.4862C206.241 31.8554 206.413 32.2934 206.46 32.7529C206.428 35.5249 202.113 36.0131 199.372 35.9659H199.435ZM259.726 42.9116C261.624 41.7954 263.866 41.4143 266.026 41.8406C268.399 41.8831 270.666 42.8319 272.362 44.4924C274.057 46.1529 275.053 48.3993 275.145 50.7709C273.718 49.9429 272.05 49.6315 270.42 49.8889C266.467 50.2354 261.301 52.3774 261.994 56.1889C262.561 59.3389 266.719 58.9136 269.869 58.0631C273.019 57.2126 275.523 55.6691 276.169 52.6294C279.996 55.4171 280.894 60.2996 281.052 65.0719C281.052 65.1387 281.078 65.2028 281.125 65.2501C281.173 65.2973 281.237 65.3239 281.304 65.3239C281.371 65.3239 281.435 65.2973 281.482 65.2501C281.529 65.2028 281.556 65.1387 281.556 65.0719C281.666 59.7326 280.705 54.5036 276.342 51.4639C276.387 50.0964 276.154 48.7341 275.657 47.4593C275.16 46.1846 274.41 45.024 273.451 44.0477C272.493 43.0715 271.346 42.2999 270.081 41.7798C268.815 41.2596 267.457 41.0017 266.089 41.0216C263.903 40.7023 261.674 41.1593 259.789 42.3131C259.206 42.5966 259.474 43.0219 259.726 42.9116ZM274.09 54.2044C272.31 56.5354 267.27 57.7481 264.939 57.3544C264.073 57.2126 263.364 56.8504 263.175 55.9526C262.608 52.8026 268.042 51.0859 271.287 50.9756C272.608 50.8743 273.926 51.2121 275.035 51.9364C274.916 52.7598 274.591 53.5399 274.09 54.2044ZM252.513 24.4999C254.198 22.4209 253.064 18.7984 248.355 18.7826C246.528 18.7826 245.646 20.6411 245.772 22.4209C246.055 26.6576 250.827 26.5316 252.513 24.4999ZM246.874 22.3421C246.874 21.3026 247.362 19.9481 248.449 19.9639C250.985 19.9639 252.15 21.1451 252.15 22.4524C252.087 25.4291 246.669 26.9726 246.874 22.3421ZM246.228 200.9C232.384 195.372 225.958 222.131 214.65 245.126C214.578 246.092 214.61 247.064 214.744 248.024C214.744 250.434 215.012 266.388 216.414 268.2C216.792 268.924 218.382 268.2 219.123 267.743C225.41 263.851 231.335 259.402 236.826 254.45C236.872 254.396 236.908 254.334 236.93 254.266C236.951 254.198 236.959 254.127 236.952 254.056C239.881 249.882 250.859 228.147 253.521 217.248C255.379 209.531 253.536 203.782 246.228 200.9ZM251.174 220.902C243.762 219.953 236.597 217.612 230.053 214.004C233.739 207.027 238.29 199.073 245.803 202.065C254.166 205.389 253.993 212.271 251.174 220.855V220.902ZM224.966 261.852C224.482 261.447 223.954 261.098 223.391 260.813C221.263 259.731 218.804 259.494 216.508 260.151C216.351 258.277 215.453 246.087 215.453 245.976C227.25 250.292 223.611 248.418 235.298 254.229C234.069 255.395 229.455 258.624 224.966 261.821V261.852ZM233.093 216.272C234.629 217.111 236.206 217.873 237.818 218.556C234.208 224.226 231.018 230.154 228.273 236.29C225.627 241.818 225.722 241.787 223.029 247.819C221.454 247.315 219.879 246.843 218.304 246.37C220.005 242.984 232.101 218.225 233.093 216.24V216.272ZM223.643 247.977C228.762 238.794 233.975 227.376 238.448 218.76C240.023 219.422 241.598 219.957 243.173 220.43C242.338 222.005 239.897 226.194 239.251 227.407C238.605 228.62 232.132 241.377 231.675 242.354C230.951 243.929 228.966 248.323 228.352 249.725C226.746 249.016 225.202 248.481 223.58 247.945L223.643 247.977ZM228.919 249.93C229.88 248.181 233.833 240.842 234.321 239.897C235.062 238.432 243.315 221.564 243.771 220.587C245.22 220.997 246.748 221.343 247.725 221.532C244.842 229.407 236.542 244.575 233.55 252.056C230.825 250.78 230.211 250.465 228.856 249.898L228.919 249.93ZM229.88 214.461L232.699 216.036C227.018 225.711 222.069 235.798 217.894 246.213L215.532 245.488C224.682 225.99 225.108 223.438 229.817 214.429L229.88 214.461ZM236.369 253.426L233.991 252.292C236.558 247.252 244.59 234.321 248.26 221.643C249.142 221.8 250.008 221.942 250.843 222.052C246.796 232.852 241.936 243.329 236.306 253.395L236.369 253.426ZM187.024 263.648C187.652 263.128 188.101 262.424 188.307 261.636C188.513 260.848 188.467 260.014 188.174 259.254C188.04 258.156 187.537 257.137 186.747 256.364C185.957 255.59 184.927 255.109 183.827 254.999C182.727 254.889 181.622 255.157 180.695 255.759C179.767 256.36 179.072 257.259 178.724 258.309C176.708 257.001 174.519 255.615 172.424 254.292C173.999 252.198 178.629 253.127 179.102 254.844C179.112 254.91 179.149 254.97 179.204 255.01C179.258 255.05 179.326 255.067 179.393 255.056C179.46 255.046 179.52 255.009 179.56 254.955C179.6 254.9 179.616 254.832 179.606 254.765C179.37 252.024 173.668 250.418 171.369 253.647C169.337 252.402 166.817 250.89 164.706 249.741C166.518 248.166 170.565 249.048 171.006 250.686C171.027 250.742 171.067 250.788 171.119 250.818C171.171 250.847 171.232 250.857 171.291 250.846C171.349 250.834 171.402 250.802 171.439 250.756C171.477 250.709 171.496 250.651 171.495 250.591C171.29 248.04 166.014 246.323 163.62 249.126C162.617 248.564 161.562 248.1 160.47 247.74C160.27 247.658 160.051 247.634 159.839 247.673C159.626 247.713 159.43 247.812 159.273 247.961C155.288 252.922 141.853 265.806 135.648 267.302C135.492 267.325 135.345 267.39 135.221 267.488C135.098 267.586 135.003 267.716 134.945 267.862C134.888 268.009 134.87 268.169 134.894 268.325C134.918 268.481 134.982 268.628 135.081 268.751C136.443 270.134 138.004 271.307 139.711 272.232C138.136 273.807 136.908 275.224 135.994 276.248C135.522 276.752 135.27 286.391 135.679 288.517C135.74 288.725 135.874 288.904 136.057 289.021C138.042 290.376 163.604 301.432 166.218 299.952C167.967 298.959 188.835 277.24 189.166 276.579C189.67 275.539 189.497 268.609 189.465 265.837C189.339 265.002 187.78 264.105 187.024 263.648ZM136.624 284.454V280.941C143.16 284.091 158.123 290.517 163.793 292.313C165.242 292.785 165.368 292.722 166.124 292.313C170.455 289.541 185.748 272.31 188.552 269.68V273.003C180.047 281.524 165.604 296.455 165.336 295.605C163.777 295.51 137.979 285.084 136.624 284.454ZM186.63 258.34C187.197 259.294 187.501 260.381 187.512 261.49C187.507 261.843 187.42 262.19 187.259 262.504C187.098 262.818 186.867 263.091 186.583 263.301C185.26 262.419 182.756 260.781 179.795 258.86C181.417 255.663 185.024 255.615 186.567 258.34H186.63ZM136.23 268.42C142.94 266.436 155.682 254.151 159.966 248.827C160.997 249.114 161.991 249.521 162.927 250.04C161.352 252.969 163.037 256.182 163.635 255.726C163.966 255.474 163.368 255.379 163.273 253.836C163.233 252.708 163.488 251.59 164.013 250.591C166.187 251.725 168.738 253.206 170.896 254.45C169.573 257.395 171.164 260.309 171.715 259.884C172.266 259.458 171.463 259.553 171.369 258.009C171.33 256.997 171.524 255.99 171.936 255.064C174.156 256.371 176.424 257.726 178.503 259.002C178.183 259.786 178.056 260.637 178.133 261.481C178.209 262.325 178.488 263.138 178.944 263.853C178.965 263.879 178.991 263.902 179.02 263.919C179.05 263.936 179.082 263.947 179.116 263.951C179.149 263.956 179.184 263.953 179.216 263.945C179.249 263.936 179.28 263.921 179.307 263.9C179.334 263.879 179.356 263.853 179.373 263.824C179.39 263.795 179.401 263.762 179.405 263.729C179.41 263.695 179.407 263.661 179.399 263.628C179.39 263.595 179.375 263.564 179.354 263.538C179.071 262.912 178.931 262.231 178.945 261.544C178.958 260.858 179.125 260.183 179.433 259.569C183.102 261.805 186.063 263.679 186.977 264.294C186.804 264.451 170.376 279.067 164.785 283.414C161.115 282.453 141.853 272.893 136.23 268.42ZM136.829 277.193C143.964 280.343 160.17 287.651 163.903 288.36C164.549 288.486 164.801 288.533 166.029 287.556C171.274 283.351 188.331 265.506 188.489 265.695C188.497 265.742 188.497 265.79 188.489 265.837V268.987C184.977 271.806 165.447 292.313 165.132 291.336C163.557 291.336 137.963 280.894 136.656 280.311C136.624 279.65 136.766 277.886 136.829 277.193ZM165.51 298.896C163.935 299.794 139.947 290.045 136.734 288.06C136.614 287.057 136.556 286.047 136.561 285.036C143.46 288.438 163.525 296.912 165.368 296.833C168.061 296.691 187.103 275.256 188.457 273.759C188.473 274.564 188.394 275.367 188.221 276.153C187.953 276.673 166.549 298.314 165.51 298.896ZM35.021 210.114C35.1312 211.799 35.21 213.264 35.21 214.634C35.21 214.843 35.2929 215.043 35.4406 215.191C35.5883 215.338 35.7886 215.421 35.9975 215.421C36.2063 215.421 36.4066 215.338 36.5543 215.191C36.702 215.043 36.785 214.843 36.785 214.634C36.785 213.169 36.7062 211.72 36.596 210.003C36.5814 209.794 36.4844 209.6 36.3263 209.463C36.1683 209.325 35.9622 209.256 35.7533 209.271C35.5445 209.286 35.35 209.383 35.2126 209.541C35.0753 209.699 35.0064 209.905 35.021 210.114ZM275.004 178.535C274.901 178.541 274.8 178.567 274.708 178.613C274.615 178.658 274.533 178.722 274.465 178.799C274.398 178.877 274.347 178.968 274.315 179.066C274.283 179.164 274.271 179.267 274.279 179.37C274.374 180.819 274.468 182.378 274.468 183.89C274.468 184.099 274.551 184.299 274.699 184.447C274.847 184.594 275.047 184.677 275.256 184.677C275.465 184.677 275.665 184.594 275.813 184.447C275.96 184.299 276.043 184.099 276.043 183.89C276.043 182.315 275.949 180.74 275.838 179.259C275.832 179.157 275.806 179.056 275.761 178.963C275.715 178.871 275.652 178.789 275.574 178.721C275.496 178.654 275.406 178.602 275.308 178.57C275.21 178.538 275.106 178.526 275.004 178.535ZM30.9417 206.192C31.1506 206.192 31.3509 206.109 31.4986 205.961C31.6463 205.813 31.7292 205.613 31.7292 205.404C31.7292 205.195 31.6463 204.995 31.4986 204.847C31.3509 204.7 31.1506 204.617 30.9417 204.617C29.036 204.617 27.4452 204.759 25.8702 204.727C25.6599 204.727 25.4579 204.81 25.3077 204.957C25.1575 205.104 25.0711 205.304 25.067 205.515C25.067 205.723 25.1499 205.924 25.2976 206.071C25.4453 206.219 25.6456 206.302 25.8545 206.302C27.4767 206.334 29.2565 206.271 30.9417 206.192ZM270.121 173.873C268.231 173.873 266.64 173.983 265.05 173.999C264.841 173.999 264.641 174.082 264.493 174.23C264.345 174.377 264.262 174.577 264.262 174.786C264.262 174.995 264.345 175.196 264.493 175.343C264.641 175.491 264.841 175.574 265.05 175.574C266.751 175.574 268.515 175.574 270.216 175.448C270.425 175.435 270.62 175.34 270.759 175.184C270.898 175.027 270.968 174.822 270.956 174.613C270.943 174.404 270.848 174.209 270.692 174.07C270.535 173.931 270.33 173.86 270.121 173.873ZM34.5957 196.458C34.6902 197.907 34.7847 199.467 34.7847 200.979C34.7888 201.186 34.873 201.384 35.0198 201.531C35.1667 201.678 35.3646 201.762 35.5722 201.766C35.7811 201.766 35.9814 201.683 36.1291 201.535C36.2768 201.388 36.3597 201.187 36.3597 200.979C36.3597 199.404 36.2652 197.829 36.1707 196.348C36.1561 196.139 36.0591 195.945 35.9011 195.807C35.7431 195.67 35.537 195.601 35.3281 195.616C35.1192 195.63 34.9247 195.727 34.7874 195.885C34.65 196.043 34.5811 196.249 34.5957 196.458ZM275.618 170.235C275.618 168.66 275.523 167.085 275.413 165.604C275.399 165.395 275.302 165.201 275.144 165.063C274.986 164.926 274.779 164.857 274.571 164.872C274.362 164.886 274.167 164.983 274.03 165.141C273.893 165.299 273.824 165.506 273.838 165.714C273.933 167.163 274.027 168.723 274.027 170.235C274.027 170.443 274.11 170.644 274.258 170.791C274.406 170.939 274.606 171.022 274.815 171.022C275.025 171.022 275.227 170.94 275.377 170.792C275.527 170.645 275.614 170.445 275.618 170.235ZM46.2192 205.987C46.3227 205.983 46.4243 205.959 46.5183 205.915C46.6123 205.872 46.6968 205.81 46.767 205.734C46.8372 205.658 46.8918 205.569 46.9275 205.472C46.9632 205.375 46.9794 205.272 46.9752 205.168C46.9593 204.962 46.8661 204.77 46.7142 204.629C46.5623 204.489 46.3629 204.411 46.1562 204.412C44.2505 204.491 42.6597 204.554 41.069 204.522C40.8601 204.522 40.6598 204.605 40.5121 204.753C40.3644 204.901 40.2815 205.101 40.2815 205.31C40.2815 205.519 40.3644 205.719 40.5121 205.867C40.6598 206.014 40.8601 206.097 41.069 206.097C42.7542 206.129 44.5182 206.066 46.2192 205.987ZM285.399 173.668C283.824 173.747 282.075 173.794 280.327 173.794C280.223 173.79 280.119 173.807 280.022 173.844C279.925 173.88 279.836 173.937 279.761 174.009C279.686 174.081 279.626 174.167 279.586 174.263C279.545 174.359 279.524 174.462 279.524 174.566C279.524 174.776 279.606 174.978 279.754 175.128C279.901 175.279 280.101 175.365 280.311 175.369C282.107 175.369 283.556 175.369 285.462 175.243C285.565 175.239 285.667 175.215 285.761 175.171C285.855 175.128 285.939 175.066 286.009 174.99C286.08 174.914 286.134 174.825 286.17 174.728C286.206 174.631 286.222 174.528 286.218 174.424C286.198 174.219 286.104 174.029 285.953 173.889C285.802 173.75 285.604 173.671 285.399 173.668ZM10.0257 159.32C10.2305 159.477 54.6455 152.894 56.5512 151.728C56.6567 151.651 56.741 151.549 56.7961 151.43C56.8512 151.312 56.8753 151.181 56.8662 151.051C56.8662 149.019 54.2045 129.946 52.9287 125.19C52.7712 124.607 52.6137 124.024 52.2515 123.819C49.8417 122.37 7.37972 130.371 4.84397 132.009C4.77525 132.05 4.71588 132.105 4.66974 132.17C4.6236 132.235 4.59173 132.309 4.57622 132.387C4.04072 134.293 8.65547 158.375 10.0257 159.32ZM5.53697 132.765C8.56097 131.395 47.1012 124.339 51.5112 124.89C52.5822 127.647 55.4487 147.838 55.6377 150.799C53.4485 151.445 10.6242 158.8 10.4667 158.832C10.3092 158.863 10.2935 159.052 9.96272 158.06C8.57672 153.902 5.45822 136.325 5.53697 132.765Z" fill="black"/>
<path d="M60.0167 153.13C60.1024 152.971 60.1406 152.791 60.1269 152.61C60.1269 150.106 56.5359 122.307 55.2602 120.087C55.1602 119.923 55.0186 119.789 54.8499 119.697C54.6811 119.606 54.4912 119.561 54.2994 119.567C49.0232 118.921 4.51368 127.615 1.58418 129.647C1.17468 129.93 1.23768 130.639 1.28493 131.395C1.53693 135.537 6.00993 162.785 7.58493 162.627C7.75818 162.627 7.69518 162.501 7.28568 163.336C4.82868 168.392 0.166681 184.583 0.261181 187.843C0.261181 189.213 0.57618 190.993 1.93068 190.899C11.6484 189.702 59.2922 182.142 72.9947 179.322C73.5302 179.212 73.8767 178.724 73.8609 177.921C73.6992 176.582 73.2935 175.285 72.6639 174.093C70.7424 170.487 62.7729 156.201 60.0167 153.13ZM7.67943 162.139C6.45093 160.564 1.93068 133.427 2.27718 130.419C5.74218 128.623 49.6532 120.134 54.2522 120.827C55.5122 124.292 58.7724 149.319 58.9772 152.327C53.4017 154.248 14.7984 160.485 7.67943 162.139ZM8.37243 162.612C9.69543 162.281 54.7562 154.737 58.8827 153.65C61.1349 155.745 71.3094 173.841 71.9709 175.385C62.9304 176.96 9.30168 185.922 1.41093 187.119C1.52118 182.346 6.41943 165.667 8.37243 162.612Z" fill="black"/>
<path d="M14.2954 178.945C15.6656 178.74 44.7401 175.243 55.2454 172.393C55.3101 172.376 55.3656 172.334 55.3995 172.276C55.4335 172.219 55.4432 172.15 55.4265 172.085C55.4098 172.021 55.368 171.965 55.3105 171.931C55.2529 171.897 55.1841 171.888 55.1194 171.904C53.0561 172.33 27.8876 175.684 14.2639 178.456C14.2262 178.45 14.1876 178.451 14.1508 178.462C14.114 178.472 14.08 178.491 14.0515 178.516C14.0229 178.542 14.0006 178.573 13.9861 178.609C13.9716 178.644 13.9653 178.682 13.9678 178.721C13.9702 178.759 13.9814 178.796 14.0003 178.829C14.0192 178.862 14.0455 178.891 14.077 178.912C14.1086 178.934 14.1447 178.948 14.1825 178.954C14.2203 178.959 14.2589 178.956 14.2954 178.945ZM35.5421 69.356C34.9538 70.6848 34.4591 72.0532 34.0616 73.451C34.0382 73.6753 34.1 73.9002 34.2349 74.081C35.8256 76.475 52.1269 94.8553 56.3794 97.4383C56.9621 97.8005 57.6551 98.0525 58.0804 97.5328C61.1695 93.6889 65.201 90.7101 69.7826 88.886C73.5116 87.5667 77.4213 86.8283 81.3746 86.6968C84.5246 86.4133 85.0759 86.0983 86.2886 84.035C87.7192 81.3197 89.6172 78.8778 91.8956 76.8215C94.8007 74.2814 98.0253 72.1317 101.487 70.427C101.643 70.3387 101.765 70.2008 101.834 70.0353C101.902 69.8698 101.913 69.6861 101.865 69.5135C101.333 68.1587 100.629 66.8777 99.7706 65.702C100.338 65.513 100.968 65.3398 100.968 64.7728C100.968 63.1978 87.2336 43.3213 83.4221 39.5728C83.0284 39.179 82.4614 38.6593 81.9416 38.6908C74.0666 39.1318 66.3964 46.5658 61.9549 53.0548C56.8676 52.8658 53.5759 52.409 47.7799 54.8503C43.6882 56.5871 39.9991 59.1501 36.9439 62.3788C36.4714 62.867 33.2584 66.269 33.2111 66.5368C33.1639 66.8045 33.2584 66.8045 35.5421 69.356ZM98.5421 68.915C91.9744 70.0333 87.7849 75.4985 84.6979 81.4363C83.3276 84.0823 83.4536 84.2083 82.0046 84.1768C79.4708 84.0333 76.9292 84.1282 74.4131 84.4603C72.5677 84.7361 70.7533 85.1897 68.9951 85.8148C64.9946 87.2323 60.4114 91.7683 57.9701 95.1388C57.9183 95.2081 57.8523 95.2657 57.7767 95.3077C57.701 95.3498 57.6173 95.3754 57.531 95.3828C57.4448 95.3903 57.3579 95.3794 57.2761 95.3509C57.1944 95.3224 57.1196 95.277 57.0566 95.2175C51.9379 89.9413 42.8816 80.6803 38.3299 75.3568C38.1094 75.1205 38.4874 74.774 38.7079 75.026C41.6531 78.176 49.2604 85.7203 57.4189 93.926C60.1751 90.4138 64.4276 86.1613 68.6329 84.6808C70.926 83.8628 73.3121 83.3337 75.7361 83.1058C78.0061 82.9334 80.2859 82.9334 82.5559 83.1058C83.4851 82.0348 88.0841 69.8758 98.5106 68.5213C98.5412 68.5437 98.5662 68.5727 98.584 68.6061C98.6018 68.6395 98.6118 68.6765 98.6133 68.7144C98.6148 68.7522 98.6078 68.7899 98.5927 68.8246C98.5777 68.8594 98.555 68.8903 98.5264 68.915H98.5421ZM81.9259 39.9665C85.0759 42.1715 97.8964 61.1503 99.5659 64.4735C96.6689 65.3914 93.8722 66.5998 91.2184 68.0803C88.7052 69.3401 86.5048 71.1447 84.7774 73.3625C83.05 75.5804 81.8391 78.1557 81.2329 80.9008C75.5786 71.7028 67.6879 61.5755 62.4431 54.1258C62.7581 53.921 71.6096 40.5808 81.9259 39.9665ZM48.1264 55.7165C53.8751 53.4013 57.0566 53.9368 61.8131 54.1415C66.5381 62.2055 75.0274 73.577 80.6186 81.0268C75.4581 79.8056 70.0276 80.5525 65.3884 83.1215C62.6006 84.6965 59.1986 88.4765 57.1039 90.8233C54.0799 88.3978 36.6289 69.8128 33.8254 66.6628C38.1409 61.7803 42.1256 58.1105 48.1264 55.6535V55.7165ZM19.3039 95.7688C18.9146 95.4956 18.4544 95.3412 17.9791 95.3245C17.5039 95.3077 17.0339 95.4292 16.6264 95.6743C16.3296 95.8066 16.0617 95.9962 15.8382 96.2321C15.6146 96.4679 15.4397 96.7455 15.3235 97.049C15.2072 97.3525 15.1518 97.6759 15.1606 98.0007C15.1693 98.3256 15.2419 98.6456 15.3743 98.9424C15.5066 99.2392 15.6962 99.507 15.932 99.7306C16.1679 99.9541 16.4455 100.129 16.749 100.245C17.0525 100.362 17.3759 100.417 17.7007 100.408C18.0256 100.4 18.3456 100.327 18.6424 100.195C19.1165 100.091 19.548 99.8455 19.8795 99.491C20.211 99.1366 20.427 98.6897 20.4987 98.2097C20.5704 97.7297 20.4946 97.2392 20.2812 96.8032C20.0678 96.3673 19.727 96.0066 19.3039 95.7688ZM18.2644 98.9188C17.1619 99.2653 16.5004 98.9188 16.2326 98.3833C15.7286 97.265 16.3586 95.5483 17.9966 96.0523C19.1464 96.4775 20.0756 98.4148 18.2644 98.9975V98.9188ZM99.3926 23.6968C99.8494 24.626 101.976 24.2795 102.905 23.9803C103.393 23.8228 103.708 23.6495 103.755 23.177C103.897 21.9958 104.055 11.7583 103.519 10.766C103.464 10.662 103.379 10.5766 103.275 10.5205C103.172 10.4645 103.054 10.4403 102.936 10.451C101.256 10.4464 99.5841 10.6905 97.9751 11.1755C97.3294 11.5693 98.8256 22.6573 99.3926 23.6968ZM98.3059 11.5535C99.7607 11.3454 101.232 11.2768 102.7 11.3488C102.795 12.5143 102.543 22.61 102.527 22.7675C101.861 23.006 101.151 23.0921 100.448 23.0195C100.338 22.6573 100.149 21.6808 99.9124 20.4523C99.2184 17.5168 98.6821 14.5463 98.3059 11.5535ZM17.7761 82.4758C17.9272 82.5532 18.0946 82.5935 18.2644 82.5935C18.4342 82.5935 18.6015 82.5532 18.7526 82.4758C19.3611 82.1004 19.8437 81.552 20.1386 80.9008C20.1787 80.7966 20.191 80.6837 20.1745 80.5733C20.1579 80.4629 20.113 80.3587 20.0441 80.2708C19.2881 79.373 11.0351 69.8128 10.0271 70.4113C8.78951 71.2125 7.61531 72.1076 6.51488 73.0888C6.47053 73.1284 6.435 73.177 6.41058 73.2312C6.38616 73.2855 6.3734 73.3443 6.37313 73.4038C6.34163 74.2228 15.5081 81.5623 17.7761 82.4758ZM10.2161 70.8208C11.3659 71.6555 15.2404 76.4435 18.8314 80.6803C18.6769 80.9235 18.4856 81.1414 18.2644 81.326C14.4889 78.9096 10.8841 76.2363 7.47563 73.325C8.33009 72.4279 9.24579 71.5911 10.2161 70.8208ZM34.9594 36.0763C35.3059 29.9653 38.8654 27.1303 42.5824 26.4058C41.5271 30.2803 41.7004 35.3203 45.5276 35.966C47.3546 36.2653 48.2524 35.3203 49.5754 34.2178C55.2296 29.4928 50.6621 24.7678 44.2834 25.0985C46.6616 18.578 52.1584 13.2703 59.4506 13.097C59.5175 13.097 59.5816 13.0705 59.6288 13.0232C59.6761 12.976 59.7026 12.9119 59.7026 12.845C59.7026 12.7782 59.6761 12.7141 59.6288 12.6668C59.5816 12.6196 59.5175 12.593 59.4506 12.593C51.5756 12.4355 45.3859 18.1055 42.9446 25.193C38.7394 25.9175 34.5656 29.0675 34.4554 35.9818C34.4492 36.0149 34.4495 36.0489 34.4565 36.0818C34.4634 36.1148 34.4768 36.146 34.4958 36.1738C34.5148 36.2016 34.5391 36.2254 34.5673 36.2438C34.5955 36.2622 34.627 36.2748 34.6601 36.281C34.6932 36.2872 34.7272 36.2869 34.7602 36.2799C34.7931 36.273 34.8244 36.2596 34.8522 36.2406C34.8799 36.2216 34.9037 36.1973 34.9221 36.1691C34.9405 36.1409 34.9532 36.1094 34.9594 36.0763ZM43.9211 26.2168C46.2679 26.0593 49.7644 26.7838 50.7251 28.91C51.2764 30.1228 50.7251 31.619 48.7721 33.257C48.2419 33.7882 47.637 34.2392 46.9766 34.5958C44.6141 35.6038 41.9996 32.69 43.9211 26.2168ZM48.4256 248.969C46.904 248.561 45.3161 248.462 43.7556 248.678C42.1951 248.893 40.6933 249.418 39.3388 250.222C37.9842 251.026 36.8042 252.093 35.8682 253.36C34.9322 254.627 34.259 256.069 33.8884 257.6C33.1887 260.781 33.7813 264.109 35.5358 266.853C37.2903 269.597 40.063 271.532 43.2439 272.232C46.4248 272.931 49.7533 272.339 52.4973 270.584C55.2413 268.83 57.1759 266.057 57.8756 262.876C58.1745 261.342 58.1668 259.764 57.8528 258.233C57.5389 256.702 56.925 255.248 56.0466 253.955C55.1681 252.662 54.0424 251.556 52.7344 250.7C51.4265 249.844 49.9621 249.256 48.4256 248.969ZM53.2924 261.805C52.6604 264.326 51.1475 266.537 49.0273 268.039C46.907 269.541 44.3192 270.235 41.7319 269.995C39.3568 269.067 37.385 267.331 36.1635 265.093C34.9421 262.855 34.5491 260.257 35.0539 257.758C35.6432 255.176 37.142 252.893 39.2763 251.325C41.4106 249.758 44.0377 249.011 46.6774 249.221C49.0759 250.212 51.048 252.017 52.2465 254.319C53.445 256.621 53.7931 259.272 53.2294 261.805H53.2924Z" fill="black"/>
<path d="M69.4045 253.457C68.0334 252.984 66.5639 252.871 65.1362 253.127C64.5445 251.77 63.8163 250.477 62.9627 249.268C63.9865 248.339 66.79 245.756 66.1128 244.543C63.7025 241.66 60.8409 239.187 57.6392 237.219C56.3023 236.47 54.8302 235.994 53.308 235.817C52.3 235.959 49.906 239.881 49.3705 240.763C49.024 240.763 47.7955 240.369 47.701 240.322C47.701 239.188 47.3703 235.093 46.3465 234.62C45.2017 234.199 44.0129 233.908 42.8027 233.754C41.6845 233.581 31.6203 235.424 30.88 236.778C30.3918 237.692 31.5258 241.141 31.8565 242.102C31.0071 242.569 30.1913 243.096 29.4153 243.677C27.8403 244.795 28.2655 244.748 27.982 244.622C27.6394 244.458 27.2723 244.352 26.8953 244.307C25.6371 243.569 24.162 243.291 22.7215 243.519C21.2725 243.992 17.8547 251.772 17.3035 253.772C17.1231 254.277 17.0743 254.819 17.1617 255.347C17.5397 256.387 20.0597 257.222 21.115 257.552C20.8236 259.579 20.8236 261.637 21.115 263.663C19.729 264.041 16.8467 264.892 17.0042 266.309C17.1617 267.727 20.8472 277.082 22.375 277.823C23.2119 278.291 24.1374 278.579 25.0921 278.668C26.0468 278.758 27.0097 278.647 27.919 278.342C28.4311 278.087 28.9257 277.797 29.3995 277.476C30.0295 277.949 30.691 278.374 31.3683 278.783C30.88 279.996 29.7932 282.705 30.1397 283.934C30.313 284.579 30.8328 284.784 31.5573 285.052C33.5575 285.776 44.3305 288.359 45.9685 288.076C46.5827 287.981 46.9135 287.336 47.1025 286.721C47.4524 285.323 47.6583 283.893 47.7167 282.453C48.5256 282.373 49.3299 282.252 50.1265 282.091C50.613 282.947 51.2353 283.718 51.9692 284.375C52.7725 284.942 53.4497 284.658 54.3633 284.075C54.8042 284.642 55.4657 285.43 56.1745 285.509C57.9542 285.713 65.3095 278.783 66.0655 277.366C66.6955 276.185 64.396 274.074 63.3723 273.145C64.4797 271.478 65.3491 269.665 65.9552 267.758C67.0912 267.93 68.2409 267.993 69.3888 267.947C69.9085 267.947 70.507 267.758 70.7275 267.27C71.6883 265.081 71.4048 256.781 70.7275 254.67C70.633 254.056 69.9242 253.646 69.4045 253.457ZM69.7825 254.906C70.318 256.954 70.4912 264.687 69.7037 266.687C68.342 266.822 66.968 266.758 65.6245 266.498C65.481 266.474 65.3336 266.504 65.2112 266.583C65.0888 266.661 65.0003 266.783 64.963 266.924C64.3358 269.053 63.362 271.064 62.0807 272.877C61.9895 272.997 61.9483 273.148 61.966 273.298C61.9836 273.448 62.0586 273.585 62.1753 273.68C63.2803 274.556 64.2192 275.623 64.9473 276.83C64.1598 278.122 58.0015 283.76 56.3005 284.233C56.0485 284.233 55.3555 283.288 55.1823 283.036C54.6005 282.162 54.0744 281.252 53.6073 280.311C53.5391 280.174 53.4221 280.067 53.2794 280.012C53.1366 279.957 52.9783 279.957 52.8355 280.012C48.268 281.729 46.5355 280.721 46.5355 281.855C46.5375 283.553 46.2609 285.239 45.7165 286.847C42.0152 286.445 38.3702 285.632 34.849 284.422C35.0191 282.74 35.4884 281.103 36.235 279.587C36.7075 278.531 34.8175 278.831 31.2895 275.24C31.176 275.135 31.0269 275.076 30.8721 275.076C30.7174 275.076 30.5683 275.135 30.4548 275.24C28.8798 276.531 26.8323 277.791 26.4228 277.586C25.6195 277.193 21.9183 268.798 21.6978 267.097C22.818 266.316 24.0897 265.78 25.4305 265.522C25.5735 265.482 25.697 265.391 25.7781 265.266C25.8592 265.142 25.8924 264.992 25.8715 264.845C25.4855 262.614 25.4855 260.334 25.8715 258.104C25.8956 257.966 25.8667 257.825 25.7907 257.708C25.7147 257.591 25.5973 257.507 25.462 257.474C24.2746 257.163 23.1315 256.702 22.06 256.103C21.7135 255.851 21.745 255.867 21.7765 255.599C22.7959 251.923 24.4308 248.445 26.6117 245.315C27.4622 245.078 29.7618 246.764 30.5492 247.362C30.6315 247.442 30.7417 247.487 30.8564 247.487C30.971 247.487 31.0812 247.442 31.1635 247.362C31.8872 246.612 32.6664 245.917 33.4945 245.283C35.8885 243.472 36.5343 243.708 36.3295 243.078C35.6055 241.498 35.1988 239.791 35.1325 238.054C35.3766 237.851 35.6536 237.691 35.9515 237.581C37.4219 237 38.9326 236.526 40.4718 236.164C42.3373 235.644 44.2548 235.332 46.189 235.235C46.5198 235.376 46.819 236.81 46.8977 237.251C47.4805 240.401 47.0867 241.046 47.5435 241.094C52.0322 241.535 52.9457 242.779 53.2607 242.228C54.1341 240.701 55.152 239.261 56.3005 237.928C56.6312 237.597 56.6155 237.44 57.6078 238.007C60.5721 239.944 63.227 242.317 65.4828 245.047C65.719 245.456 63.6715 247.63 62.1753 248.906C61.6555 249.362 62.3957 249.567 63.7502 252.15C65.1047 254.733 64.7897 255.458 65.5142 255.3C66.9109 254.966 68.3483 254.833 69.7825 254.906ZM288.377 123.299C285.075 121.951 281.613 121.035 278.076 120.575C275.493 120.165 272.454 119.756 269.886 119.425C272.359 115.928 279.683 107.077 280.911 104.919C281.258 104.336 280.596 103.517 280.108 103.029C277.368 100.1 272.076 98.9972 268.012 98.3672C265.681 97.9892 255.948 96.7922 254.294 97.5797C252.309 98.5247 237.63 120.575 237.189 123.929C237.189 124.496 237.378 124.717 237.93 124.922C240.245 125.772 250.687 127.095 253.018 127.646C249.868 133.159 235.866 151.791 234.496 154.421C234.165 155.083 234.37 155.477 234.764 155.603C236.181 156.165 237.64 156.618 239.126 156.957C239.693 157.13 240.938 156.359 242.749 155.256C250.876 150.374 285.747 127.347 288.424 124.37C288.498 124.301 288.556 124.216 288.594 124.121C288.632 124.027 288.65 123.926 288.645 123.824C288.641 123.723 288.614 123.623 288.568 123.533C288.522 123.442 288.457 123.363 288.377 123.299ZM254.53 142.199C241.143 151.035 236.622 153.618 236.465 153.728C238.622 150.437 252.026 132.072 254.325 127.678C254.365 127.593 254.386 127.5 254.385 127.406C254.385 127.313 254.364 127.22 254.323 127.136C254.282 127.051 254.223 126.977 254.15 126.918C254.077 126.859 253.991 126.817 253.9 126.796C252.325 126.229 240.859 125 238.15 124.04C238.497 121.11 252.798 98.9657 254.53 98.0837C256.262 97.2017 273.068 99.202 276.218 101.454C274.564 104.683 265.429 115.991 263.949 118.622C263.649 119.157 263.555 119.677 264.138 119.819C264.72 119.96 279.525 121.693 282.754 122.748C278.816 126.04 258.94 139.238 254.53 142.136V142.199ZM153.494 45.904C153.494 46.0457 153.588 46.219 153.825 47.1325C153.887 47.3306 154.023 47.4971 154.205 47.5969C154.387 47.6968 154.601 47.7222 154.801 47.668C155.002 47.6095 155.171 47.4737 155.271 47.2906C155.371 47.1075 155.395 46.892 155.337 46.6915C155.179 46.0772 155.037 45.5575 154.943 45.3055C154.851 45.1325 154.698 44.9999 154.514 44.9336C154.33 44.8673 154.127 44.8719 153.946 44.9467C153.766 45.0214 153.619 45.1609 153.535 45.3379C153.451 45.5149 153.437 45.7167 153.494 45.904Z" fill="black"/>
</svg>
