<svg width="291" height="219" viewBox="0 0 291 219" fill="none" xmlns="http://www.w3.org/2000/svg">
<path d="M225.835 85.9845C225.195 85.9845 225.195 87.174 225.835 87.174C227.36 87.174 248.604 86.8232 250.388 86.4725C250.55 86.4481 250.699 86.3661 250.806 86.2416C250.913 86.1171 250.972 85.9582 250.972 85.7939C250.972 85.6295 250.913 85.4707 250.806 85.3461C250.699 85.2216 250.55 85.1397 250.388 85.1152C244.791 84.3832 231.996 85.8625 225.835 85.9845ZM234.345 117.125C233.643 117.125 233.765 118.299 234.436 118.33C239.408 118.497 247.155 118.238 252.233 118.009C253.163 118.009 253.27 116.484 252.233 116.484C246.545 116.515 240.048 116.591 234.345 117.125ZM235.001 64.5278C234.853 64.5341 234.712 64.594 234.606 64.6962C234.499 64.7984 234.432 64.936 234.419 65.0833C234.406 65.2307 234.447 65.3778 234.535 65.4972C234.622 65.6166 234.75 65.7002 234.894 65.7325C237.624 66.068 246.484 66.4188 249.153 65.2902C249.289 65.2225 249.4 65.1122 249.468 64.9759C249.537 64.8396 249.559 64.6848 249.531 64.5348C249.503 64.3849 249.428 64.2481 249.316 64.145C249.203 64.0419 249.06 63.9782 248.909 63.9635C245.371 63.75 239.698 64.8785 235.001 64.5278ZM217.585 93.9907C230.456 93.8077 245.035 92.908 258.028 91.7185C258.836 91.7185 258.76 90.1935 257.921 90.1935C245.142 90.5137 230.212 91.3525 217.509 92.664C217.333 92.6741 217.168 92.7537 217.051 92.8853C216.934 93.0168 216.874 93.1896 216.884 93.3655C216.894 93.5414 216.973 93.7061 217.105 93.8234C217.237 93.9407 217.409 94.0009 217.585 93.9907ZM236.038 26.0673C239.621 25.7928 243.205 25.5792 246.713 25.1522C247.719 25.0455 247.46 23.6272 246.469 23.6272C242.9 23.9017 239.332 24.3592 235.794 24.771C234.97 24.8625 235.199 26.1283 236.038 26.0673ZM215.115 57.8787C214.352 57.8787 214.322 59.175 215.115 59.236C223.736 59.6376 232.375 59.0337 240.857 57.4365C241.817 57.2687 241.665 55.7437 240.689 55.9115C232.243 57.3519 223.682 58.0104 215.115 57.8787ZM243.495 33.372C244.822 33.6923 245.02 31.5267 243.8 31.7402C237.848 32.7052 231.815 33.0781 225.79 32.8535C224.981 32.8535 224.798 34.0278 225.622 34.1192C231.585 34.7179 237.603 34.4663 243.495 33.372ZM210.463 93.274C209.274 92.8165 203.784 93.579 202.244 93.7467C201.496 93.7467 201.466 94.9515 202.244 94.9362L208.481 94.738C211.363 94.6312 211.348 93.6247 210.463 93.274ZM216.762 159.261C215.481 158.956 206.376 159.642 204.882 159.733C204.089 159.733 204.241 160.953 205.034 160.938C206.651 160.938 215.511 160.938 216.914 160.496C217.539 160.282 217.326 159.383 216.762 159.261ZM204.867 152.81C209.152 153.008 219.766 153.191 224.051 152.169C224.151 152.169 224.25 152.147 224.341 152.106C224.433 152.064 224.514 152.004 224.581 151.93C224.647 151.855 224.698 151.767 224.728 151.672C224.759 151.576 224.769 151.476 224.758 151.376C224.748 151.277 224.716 151.18 224.666 151.094C224.616 151.007 224.548 150.932 224.467 150.873C224.386 150.814 224.294 150.773 224.196 150.752C224.098 150.731 223.997 150.731 223.899 150.751C217.631 150.751 211.821 151.803 205.05 151.529C204.241 151.498 204.028 152.764 204.867 152.81ZM219.659 125.695C220.574 125.528 220.498 124.17 219.537 124.17C212.766 124.857 211.348 125.024 204.409 125.299C203.738 125.299 203.662 126.458 204.409 126.504C209.507 126.842 214.626 126.571 219.659 125.695ZM229.053 116.103C220.757 116.408 212.141 117.811 203.479 118.116C203.324 118.14 203.183 118.219 203.081 118.337C202.979 118.456 202.923 118.608 202.923 118.764C202.923 118.921 202.979 119.072 203.081 119.191C203.183 119.31 203.324 119.389 203.479 119.412C210.662 119.412 222.221 119.077 229.221 117.521C229.367 117.457 229.488 117.347 229.568 117.208C229.647 117.07 229.679 116.909 229.66 116.75C229.642 116.592 229.573 116.443 229.463 116.327C229.354 116.21 229.21 116.132 229.053 116.103ZM257.311 155.524C257.189 155.524 248.817 156.211 247.384 156.165C247.248 156.189 247.124 156.257 247.029 156.358C246.935 156.458 246.876 156.587 246.86 156.724C246.845 156.861 246.874 156.999 246.944 157.118C247.013 157.238 247.119 157.331 247.246 157.385C248.954 157.705 256.152 157.827 257.632 156.577C257.706 156.495 257.758 156.395 257.782 156.287C257.807 156.178 257.802 156.066 257.77 155.96C257.738 155.854 257.679 155.758 257.598 155.682C257.518 155.605 257.419 155.551 257.311 155.524ZM260.011 122.264C249.442 122.95 237.639 123.347 227.116 124.247C226.293 124.247 226.445 125.482 227.238 125.528C232.927 125.695 253.163 124.658 260.148 123.774C260.248 123.766 260.345 123.739 260.434 123.693C260.522 123.647 260.601 123.584 260.665 123.507C260.729 123.431 260.777 123.342 260.806 123.246C260.835 123.15 260.845 123.05 260.834 122.95C260.815 122.751 260.718 122.567 260.563 122.438C260.409 122.31 260.211 122.247 260.011 122.264ZM220.315 87.5857C220.517 87.5857 220.711 87.5054 220.854 87.3624C220.997 87.2194 221.077 87.0255 221.077 86.8232C221.077 86.621 220.997 86.4271 220.854 86.2841C220.711 86.1411 220.517 86.0607 220.315 86.0607C213.742 86.2285 207.108 86.2742 200.49 86.7775C200.348 86.8091 200.22 86.8883 200.129 87.002C200.038 87.1156 199.988 87.257 199.988 87.4027C199.988 87.5485 200.038 87.6899 200.129 87.8035C200.22 87.9172 200.348 87.9964 200.49 88.028C207.139 88.15 213.742 87.7992 220.315 87.5857ZM246.316 149.15C243.998 149.15 235.641 149.745 233.659 150.095C233.018 150.202 232.927 151.254 233.659 151.285C235.809 151.392 244.12 150.858 246.53 150.645C247.46 150.675 247.262 149.15 246.316 149.15ZM241.863 157.705L222.694 158.925C221.825 158.925 222.038 160.252 222.892 160.206C226.613 160.038 238.584 159.566 241.939 159.108C242.687 159.017 242.702 157.705 241.863 157.705ZM228.138 25.1522C222.511 24.5117 204.851 25.5792 198.858 26.1892C198.035 26.2655 197.974 27.5465 198.858 27.4702C208.71 26.8297 218.302 26.6162 228.153 26.6467C228.325 26.61 228.48 26.5149 228.589 26.3776C228.699 26.2403 228.759 26.0692 228.757 25.8933C228.755 25.7174 228.692 25.5475 228.58 25.4124C228.467 25.2774 228.311 25.1855 228.138 25.1522ZM229.77 66.312C230.731 66.1747 230.38 64.787 229.419 64.787C219.604 65.9053 209.728 66.4146 199.849 66.312C199.706 66.3349 199.576 66.4081 199.482 66.5185C199.387 66.6289 199.336 66.7692 199.336 66.9144C199.336 67.0595 199.387 67.1998 199.482 67.3103C199.576 67.4207 199.706 67.4939 199.849 67.5168C209.839 67.9978 219.851 67.5947 229.77 66.312ZM219.415 34.3785C219.516 34.369 219.613 34.3397 219.702 34.2922C219.791 34.2448 219.869 34.1803 219.933 34.1023C219.997 34.0243 220.045 33.9344 220.074 33.8378C220.103 33.7413 220.112 33.64 220.101 33.5397C220.092 33.4394 220.063 33.342 220.015 33.2531C219.968 33.1641 219.903 33.0855 219.825 33.0217C219.747 32.9579 219.657 32.9101 219.561 32.8813C219.464 32.8524 219.363 32.843 219.263 32.8535C212.537 33.6923 206.163 33.7227 199.529 34.3022C198.828 34.3785 198.751 35.5222 199.529 35.5527C206.178 35.6602 212.825 35.2677 219.415 34.3785ZM200.52 58.5192C199.758 58.5192 199.743 59.724 200.612 59.7545C203.349 60.0123 206.1 60.0836 208.847 59.968C208.971 59.9127 209.076 59.8229 209.149 59.7092C209.223 59.5955 209.262 59.463 209.262 59.3275C209.262 59.192 209.223 59.0595 209.149 58.9458C209.076 58.8321 208.971 58.7423 208.847 58.687C208.572 58.5345 201.923 58.5192 200.52 58.5192ZM181.488 67.3032C182.373 67.3032 185.652 61.8743 187.497 60.0138C188.168 59.3428 187.07 58.2142 186.384 58.8547C184.438 60.6087 182.754 62.632 181.382 64.8633L177.523 61.31C176.73 60.578 175.709 61.8285 176.441 62.5758C177.173 63.323 180.36 67.3032 181.488 67.3032ZM171.057 42.4C177.31 42.766 183.806 42.644 190.669 42.6897C191.157 42.6897 191.447 41.3325 190.669 25.137C190.669 23.9628 190.562 23.0935 190.547 22.7733C190.551 22.726 190.545 22.6785 190.529 22.6338C190.513 22.5891 190.488 22.5483 190.455 22.514C190.013 22.0412 187.131 22.0717 180.65 22.2395C169.746 22.4987 168.541 22.4225 168.541 23.0478C168.495 23.1698 169.182 42.217 171.057 42.4ZM171.484 41.2715C170.722 37.1997 170.173 28.5988 169.7 23.7798C174.138 24.039 184.249 23.5357 189.342 23.4137C189.342 23.4137 189.617 36.971 189.739 41.3478C183.761 41.2105 177.523 40.9817 171.423 41.1952L171.484 41.2715Z" fill="black"/>
<path d="M192.773 71.2835C194.054 70.7803 192.56 56.5673 192.346 52.831C192.336 52.7542 192.298 52.6838 192.239 52.6328C191.324 51.8398 171.972 52.892 170.996 52.9683C170.02 53.0445 170.996 58.3515 171.164 61.9658C171.515 70.9633 171.926 71.741 172.384 71.802C175.708 72.2748 189.723 72.473 192.773 71.2835ZM171.926 54.2188C178.53 53.7918 185.224 53.7613 191.172 53.7308C191.324 57.2993 191.568 67.349 191.873 70.0635C185.658 70.7064 179.404 70.8848 173.162 70.5973C173.421 68.325 172.155 56.796 171.926 54.2188ZM184.34 92.725L187.878 89.5225C187.981 89.3482 188.026 89.1457 188.008 88.944C187.989 88.7424 187.907 88.5518 187.773 88.3996C187.639 88.2473 187.461 88.1412 187.264 88.0964C187.066 88.0516 186.859 88.0704 186.673 88.15C185.224 89.0423 183.91 90.136 182.769 91.3983L179.597 88.4703C179.425 88.3105 179.197 88.2256 178.962 88.2342C178.728 88.2428 178.506 88.3441 178.347 88.516C178.187 88.6879 178.102 88.9162 178.111 89.1508C178.119 89.3853 178.221 89.6068 178.392 89.7665L181.442 92.8165C178.697 95.714 177.493 97.5288 177.767 98.3523C178.042 99.1758 179.033 98.8098 179.292 98.4438C180.36 97.1323 181.564 95.6378 182.861 94.25C184.146 95.6531 185.571 96.9204 187.115 98.032C187.275 98.0734 187.442 98.0709 187.6 98.025C187.758 97.9791 187.901 97.8915 188.013 97.7713C188.126 97.6511 188.204 97.5028 188.239 97.342C188.274 97.1812 188.265 97.014 188.213 96.8578C187.065 95.3527 185.768 93.968 184.34 92.725ZM185.148 27.3483C182.712 29.4787 180.722 32.0701 179.292 34.9733C178.143 33.5981 176.821 32.3781 175.358 31.3438C174.458 30.7185 173.299 31.908 174.183 32.579C175.923 34.1165 177.549 35.778 179.048 37.5505C179.445 37.9623 179.826 37.7488 180.161 37.3065C181.822 34.071 183.871 31.0496 186.261 28.309C186.993 27.5008 185.941 26.601 185.148 27.3483ZM184.66 126.916C185.453 126.367 188.473 120.541 190.226 118.559C190.913 117.796 189.723 116.744 188.945 117.552C186.858 119.703 185.068 122.124 183.623 124.75L180.07 121.7C179.292 121.044 178.255 122.219 179.063 122.996C179.872 123.774 183.349 128.044 184.66 126.916ZM196.296 146.466C195.716 145.322 174.854 146.466 174.656 146.466C174.611 146.472 174.567 146.488 174.53 146.515C174.493 146.542 174.463 146.577 174.443 146.619C173.741 147.747 174.443 166.093 174.946 167.801C175.541 169.875 195.762 168.152 196.769 168.243C196.799 168.25 196.83 168.25 196.861 168.243C196.891 168.236 196.92 168.223 196.944 168.204C196.969 168.185 196.989 168.161 197.004 168.134C197.018 168.106 197.026 168.076 197.028 168.045C197.348 165.712 196.372 146.619 196.296 146.466ZM175.632 147.579C181.732 147.839 188.945 147.457 195.137 147.442C195.228 149.989 195.777 164.934 195.854 166.947C189.083 167.252 183.394 167.145 176.181 166.947C176.257 164.4 175.724 149.897 175.632 147.625V147.579Z" fill="black"/>
<path d="M182.998 157.461C184.081 157.461 189.617 157.843 190.059 157.599C190.176 157.532 190.275 157.44 190.35 157.329C190.425 157.218 190.474 157.091 190.491 156.958C190.509 156.825 190.496 156.69 190.453 156.563C190.409 156.436 190.337 156.321 190.242 156.226C189.434 155.372 184.325 155.555 183.471 155.723C182.312 155.936 182.099 156.379 182.129 156.714C182.17 156.918 182.278 157.102 182.435 157.237C182.593 157.373 182.791 157.452 182.998 157.461ZM185.057 112.703C180.055 112.794 174.794 112.977 173.925 113.038C173.589 113.038 173.238 113.328 173.193 116.5C173.193 120.297 173.848 132.329 175.373 132.436C178.423 132.665 194.192 132.726 196.22 132.573C196.54 132.573 196.8 132.573 196.22 124.643C195.9 120.556 195.183 113.13 195.183 113.13C195.122 112.825 195.092 112.55 185.057 112.703ZM194.039 114.045C194.405 119.733 194.604 125.558 195.214 131.277H175.816C175.221 125.772 174.824 120.099 174.397 114.273L194.039 114.045ZM177.524 104.117C183.715 104.117 194.07 103.278 194.161 103.232C195.137 102.729 194.161 88.9583 193.841 83.0718C193.841 82.0195 188.458 82.0043 183.99 82.172C182.038 82.172 172.339 82.6905 172.369 84.0783C172.888 104.498 172.766 103.507 173.147 103.72C174.574 104.093 176.053 104.227 177.524 104.117ZM174.306 102.592C173.955 96.5833 173.833 90.2088 173.589 84.2918C179.922 83.7293 186.28 83.5155 192.636 83.6513C192.636 85.7405 193.048 99.6333 193.307 101.951C191.05 102.104 176.67 102.211 174.352 102.607L174.306 102.592Z" fill="black"/>
<path d="M288.848 126.687C284.853 18 286.53 18.915 285.798 18.2745C284.761 17.2985 276.755 17.939 274.788 18.0458L273.964 1.37753C274.003 1.277 274.018 1.16848 274.006 1.06118C273.995 0.953878 273.957 0.85096 273.897 0.761158C273.838 0.671357 273.757 0.597322 273.662 0.545335C273.568 0.493348 273.462 0.464942 273.354 0.46253C241.329 0.06603 208.374 2.18578 175.327 4.42753C166.421 5.05278 157.164 5.60178 148.106 6.56253C148.021 6.54892 147.935 6.55428 147.852 6.57823C147.77 6.60218 147.694 6.64412 147.63 6.70103C147.565 6.75793 147.515 6.82837 147.481 6.90727C147.447 6.98617 147.432 7.07156 147.435 7.15728C149.112 47.8748 153.992 113.694 162.426 186.574C162.517 187.412 169.471 186.68 175.724 186.269C175.805 188.063 176.129 189.837 176.684 191.545C177.599 192.704 290.724 185.689 290.587 180.87C290.099 162.768 289.443 144.438 288.848 126.687ZM280.278 174.236C240.17 180.336 204.104 182.044 163.829 185.521C155.853 116.424 152.574 69.0265 148.579 7.63003C160.962 6.89803 206.757 2.68903 272.912 1.81978C274.559 46.1515 280.689 169.356 280.232 174.236H280.278ZM88.8444 69.3925C87.8074 69.3925 87.8226 71.4055 88.3106 72.168C88.367 72.2796 88.4548 72.3723 88.5632 72.4347C88.6716 72.497 88.7958 72.5262 88.9206 72.5188C89.8509 72.412 89.8051 69.4993 88.8444 69.3925ZM83.4001 78.207C84.0559 78.3748 85.8249 78.4815 86.2366 77.8715C86.8161 77.0175 85.2454 69.2705 85.0471 68.7215C85.0063 68.6095 84.9271 68.5156 84.8235 68.4565C84.7199 68.3975 84.5987 68.3772 84.4815 68.3991C84.3643 68.4211 84.2588 68.484 84.1836 68.5765C84.1084 68.6691 84.0686 68.7853 84.0711 68.9045C84.0711 70.2923 84.6964 75.0045 84.9404 76.9718L83.4154 77.0633C83.3039 77.1108 83.2086 77.1896 83.1411 77.2903C83.0736 77.3909 83.0368 77.509 83.0352 77.6302C83.0336 77.7514 83.0672 77.8704 83.132 77.9728C83.1968 78.0752 83.29 78.1566 83.4001 78.207ZM87.5481 66.5408C87.9995 66.4172 88.4743 66.4053 88.9313 66.5063C89.3883 66.6072 89.8138 66.818 90.1711 67.1203C90.7659 67.654 91.9096 66.6323 90.2779 65.5953C89.1036 64.8023 86.3586 64.5278 86.6484 65.9308C86.6957 66.1261 86.814 66.2969 86.9804 66.4096C87.1468 66.5224 87.3492 66.5692 87.5481 66.5408Z" fill="black"/>
<path d="M132.262 121.975C122.456 112.306 104.812 100.945 88.952 98.6878C89.2147 97.7812 89.2147 96.8188 88.952 95.9123C90.1593 94.9032 91.2815 93.7963 92.307 92.603C94.4878 90.041 94.442 87.54 91.331 88.8058C94.381 82.0653 94.381 67.4558 93.283 59.2513C98.3918 62.4385 107.008 59.3733 105.956 53.1513C112.895 55.2405 117.409 41.4545 108.594 38.9688C109.829 28.5378 96.4703 27.028 92.3833 33.1128C90.0805 26.3875 79.497 29.9255 80.2595 35.202C75.4863 30.078 65.1773 31.8623 63.7438 38.252C59.428 34.3328 52.3063 35.995 52.9315 41.7748C46.0995 38.6028 42.4853 46.7768 47.7923 49.3998C44.3915 51.2298 44.4983 58.7633 49.7138 58.7633C49.7138 63.7958 52.7638 75.3248 60.3125 81.6383C61.1208 88.699 59.672 92.3133 57.1558 98.8555C32.2678 102.637 13.373 122.051 4.89404 146.13C-4.77446 173.58 -0.184214 199.506 28.4705 204.965C28.4109 208.628 27.9817 212.276 27.1895 215.854C27.1753 215.988 27.2101 216.124 27.2877 216.235C27.3653 216.347 27.4804 216.426 27.612 216.46C27.7436 216.493 27.8827 216.478 28.004 216.417C28.1253 216.356 28.2205 216.253 28.2723 216.128C29.2931 212.575 29.8468 208.905 29.9193 205.209C36.8226 206.235 43.8749 205.159 50.1581 202.121C56.4412 199.082 61.6641 194.223 65.1468 188.175C69.5613 189.852 74.0673 191.277 78.643 192.445C93.039 196.516 111.812 200.558 129.593 195.739C129.243 204.264 128.755 211.096 127.992 217.882C127.992 218.553 128.922 218.751 129.029 218.08C129.624 214.511 131.103 198.85 131.012 195.327C142.327 191.85 149.891 183.996 151.752 173.794C155 156.501 147.68 137.087 132.262 121.975ZM67.4953 56.2928C67.8918 60.7458 67.4953 63.9178 66.138 65.9765C65.6348 66.7238 64.8723 67.5015 64.2165 67.5015C63.7133 66.9525 60.4193 63.5365 57.3083 65.5343C55.28 66.861 55.1885 69.4383 57.11 72.7933C58.4834 74.831 59.4659 77.1063 60.0075 79.5033C54.1668 73.1593 52.3825 67.2118 51.0405 58.687C52.5907 58.4074 54.0057 57.6249 55.0665 56.4605C57.7353 60.4255 64.2623 59.6325 67.4953 56.2928ZM58.0403 66.5408C60.099 65.275 62.0053 66.8 63.7438 68.325C64.7655 69.2248 66.443 67.959 67.236 66.8C69.31 63.933 69.127 59.175 68.8525 56.796C70.3327 58.2057 72.2985 58.992 74.3425 58.992C76.3866 58.992 78.3523 58.2057 79.8325 56.796C80.1375 61.188 89.3485 62.1945 91.7733 58.5498C92.8865 66.1748 93.4203 82.66 89.7298 89.5683C86.6798 90.9103 79.741 93.9755 76.2945 92.6183C73.336 91.444 71.8415 86.93 68.395 84.9933C66.077 83.7123 64.0945 85.161 65.711 87.7535C69.798 94.25 69.432 96.7205 66.199 103.4C63.3655 102.628 60.7157 101.295 58.4063 99.4808C61.7613 94.677 62.6763 86.1065 61.8375 80.403C61.0903 75.3248 60.3125 75.6298 58.2995 71.8783C57.3693 70.338 56.5458 67.4863 58.0403 66.5408ZM83.767 97.3C83.6454 97.3564 83.5486 97.4554 83.4949 97.5783C83.4413 97.7012 83.4344 97.8395 83.4757 97.967C83.517 98.0946 83.6035 98.2027 83.719 98.2708C83.8345 98.339 83.9709 98.3625 84.1025 98.337C85.4103 98.1033 86.6499 97.5825 87.732 96.812C87.8198 98.234 87.4454 99.6463 86.6645 100.838C86.39 101.219 86.878 102.363 87.8693 100.945C87.793 105.154 85.6428 110.354 81.51 112.398C78.7091 111.891 76.0434 110.81 73.6812 109.222C71.3189 107.634 69.3114 105.574 67.785 103.171C72.36 95.3328 68.334 89.4463 66.992 87.0063C66.2448 85.6033 66.626 85.3898 67.846 86.1828C70.7283 88.0128 73.2598 93.1215 76.0505 93.8078C81.3118 95.0735 87.793 91.9015 90.965 90.4833C92.612 89.736 93.5728 89.2327 91.5903 91.7185C88.9368 94.9973 87.427 95.6835 83.767 97.3ZM19.229 162.387C19.1739 162.511 19.1652 162.651 19.2047 162.781C19.2442 162.91 19.3292 163.022 19.4441 163.094C19.559 163.166 19.6961 163.195 19.8303 163.174C19.9644 163.153 20.0866 163.085 20.1745 162.982C33.5488 141.906 55.6765 127.282 67.0683 104.727C68.8373 108.661 76.4013 113.724 81.0678 113.724C81.0678 117.521 80.6865 122.035 80.29 126.367C75.715 125.314 63.3473 121.441 61.1208 116.378C60.8615 115.753 59.855 116.18 60.099 116.805C62.1883 122.463 75.0898 127.007 80.1528 127.968C79.0834 139.363 76.9648 150.634 73.824 161.64C71.5213 169.875 68.5628 179.833 64.2928 187.199C60.8886 193.255 55.6799 198.098 49.3926 201.053C43.1053 204.008 36.0527 204.927 29.2178 203.684C1.06629 198.743 -3.17321 173.352 6.38854 146.527C15.325 121.395 34.8908 103.705 57.4608 100.35C59.9142 102.159 62.596 103.636 65.4365 104.742C53.999 126.809 32.1915 141.296 19.229 162.387ZM75.1355 162.28C89.9542 156.035 105.699 152.269 121.74 151.133C126.315 150.828 130.89 150.843 135.465 150.843C136.136 150.843 136.151 149.745 135.465 149.745C132.353 149.529 129.233 149.473 126.116 149.577C125.369 143.477 114.374 125.68 110.638 120.755C110.542 120.664 110.417 120.611 110.285 120.605C110.154 120.599 110.025 120.64 109.921 120.722C109.818 120.803 109.747 120.919 109.722 121.048C109.696 121.177 109.718 121.311 109.784 121.426C117.271 131.918 123.326 145.277 124.53 149.638C111.126 150.141 90.4465 153.313 75.5625 160.603C76.9655 155.463 82.3945 134.266 82.5165 113.328C86.7103 111.452 89.6993 104.666 89.3485 100.106C105.16 103.707 119.663 111.626 131.24 122.981C144.828 136.294 153.155 153.481 150.593 172.162C149.235 182.837 141.656 191.103 130.341 194.107C110.836 199.444 90.7668 194.809 71.506 188.831C69.6415 188.203 67.7422 187.684 65.8178 187.275C69.7154 179.26 72.8356 170.89 75.1355 162.28Z" fill="black"/>
<path d="M74.3878 64.1008C74.782 63.5184 75.3076 63.0369 75.9222 62.6951C76.5368 62.3534 77.2231 62.161 77.9258 62.1336C79.0391 62.1336 78.9781 60.4561 77.9258 60.6086C77.02 60.7038 76.148 61.0047 75.3762 61.4884C74.6045 61.972 73.9534 62.6256 73.4728 63.3993C73.0763 64.0245 73.9608 64.7108 74.3878 64.1008ZM77.9868 68.3251C77.3616 68.8283 77.4073 71.3751 78.3528 71.3751C78.5691 71.3525 78.7713 71.2573 78.9264 71.1049C79.0815 70.9526 79.1804 70.7521 79.2068 70.5363C79.5576 69.2095 78.6578 67.8523 77.9868 68.3251ZM76.6448 80.9216C76.6163 80.8023 76.5517 80.6948 76.4597 80.6137C76.3678 80.5326 76.253 80.4819 76.1312 80.4686C76.0093 80.4552 75.8863 80.4799 75.779 80.5391C75.6716 80.5984 75.5852 80.6893 75.5316 80.7996C75.3791 81.0131 75.0893 81.6688 75.7298 82.9956C76.1646 83.8988 76.915 84.6115 77.8394 84.9992C78.7637 85.387 79.7981 85.4228 80.7471 85.1001C80.8756 85.049 80.9809 84.9526 81.043 84.829C81.1051 84.7054 81.1197 84.5634 81.0839 84.4298C81.0482 84.2962 80.9646 84.1804 80.8491 84.1043C80.7336 84.0283 80.5942 83.9973 80.4573 84.0173C78.2918 84.4443 77.0413 83.0718 76.6448 80.9216Z" fill="black"/>
</svg>
