<svg width="25" height="24" viewBox="0 0 25 24" fill="none" xmlns="http://www.w3.org/2000/svg">
<path d="M14.5049 3V21H3.50488C2.9526 21 2.50488 20.5522 2.50488 20V14.5C3.88559 14.5 5.00488 13.3807 5.00488 12C5.00488 10.6193 3.88559 9.5 2.50488 9.5V4C2.50488 3.44772 2.9526 3 3.50488 3H14.5049ZM16.5049 3H21.5049C22.0572 3 22.5049 3.44772 22.5049 4V9.5C21.1242 9.5 20.0049 10.6193 20.0049 12C20.0049 13.3807 21.1242 14.5 22.5049 14.5V20C22.5049 20.5522 22.0572 21 21.5049 21H16.5049V3Z" fill="black"/>
</svg>
