<svg width="12" height="14" viewBox="0 0 12 14" fill="none" xmlns="http://www.w3.org/2000/svg">
<path d="M5.99999 6.99967C5.26666 6.99967 4.66666 6.39967 4.66666 5.66634C4.66666 4.93301 5.26666 4.33301 5.99999 4.33301C6.73332 4.33301 7.33332 4.93301 7.33332 5.66634C7.33332 6.39967 6.73332 6.99967 5.99999 6.99967ZM9.99999 5.79967C9.99999 3.37967 8.23332 1.66634 5.99999 1.66634C3.76666 1.66634 1.99999 3.37967 1.99999 5.79967C1.99999 7.35967 3.29999 9.42634 5.99999 11.893C8.69999 9.42634 9.99999 7.35967 9.99999 5.79967ZM5.99999 0.333008C8.79999 0.333008 11.3333 2.47967 11.3333 5.79967C11.3333 8.01301 9.55332 10.633 5.99999 13.6663C2.44666 10.633 0.666656 8.01301 0.666656 5.79967C0.666656 2.47967 3.19999 0.333008 5.99999 0.333008Z" fill="#27272A"/>
</svg>
